<?xml version="1.0" standalone="no"?>
<!DOCTYPE svg PUBLIC "-//W3C//DTD SVG 1.1//EN" "http://www.w3.org/Graphics/SVG/1.1/DTD/svg11.dtd" >
<svg xmlns="http://www.w3.org/2000/svg">
<metadata>
<json>
<![CDATA[
{
	"fontFamily": "progressive-icons",
	"majorVersion": 2,
	"minorVersion": 4,
	"fontURL": "http://www.newbrandmedia.com",
	"copyright": "http://www.newbrandmedia.com",
	"designerURL": "http://www.newbrandmedia.com",
	"description": "Progressive Design Team\nFont generated by IcoMoon.",
	"designer": "Jonathan Porter",
	"version": "Version 2.4",
	"fontId": "progressive-icons",
	"psName": "progressive-icons",
	"subFamily": "Regular",
	"fullName": "progressive-icons"
}
]]>
</json>
</metadata>
<defs>
<font id="progressive-icons" horiz-adv-x="1024">
<font-face units-per-em="1024" ascent="960" descent="-64" />
<missing-glyph horiz-adv-x="1024" />
<glyph unicode="&#x20;" horiz-adv-x="512" d="" />
<glyph unicode="&#xe079;" glyph-name="chevron-left" data-tags="chevron-left" horiz-adv-x="768" d="M669.143 778.857l-303.429-303.429 303.429-303.429q10.857-10.857 10.857-25.714t-10.857-25.714l-94.857-94.857q-10.857-10.857-25.714-10.857t-25.714 10.857l-424 424q-10.857 10.857-10.857 25.714t10.857 25.714l424 424q10.857 10.857 25.714 10.857t25.714-10.857l94.857-94.857q10.857-10.857 10.857-25.714t-10.857-25.714z" />
<glyph unicode="&#xe080;" glyph-name="chevron-right" data-tags="chevron-right" horiz-adv-x="695" d="M632.571 449.714l-424-424q-10.857-10.857-25.714-10.857t-25.714 10.857l-94.857 94.857q-10.857 10.857-10.857 25.714t10.857 25.714l303.429 303.429-303.429 303.429q-10.857 10.857-10.857 25.714t10.857 25.714l94.857 94.857q10.857 10.857 25.714 10.857t25.714-10.857l424-424q10.857-10.857 10.857-25.714t-10.857-25.714z" />
<glyph unicode="&#xe603;" glyph-name="sort2" data-tags="sort" d="M315.315 891.312c-0.187 0.187-0.379 0.37-0.575 0.547-0.093 0.083-0.188 0.162-0.281 0.244-0.103 0.089-0.204 0.179-0.309 0.266-0.122 0.101-0.248 0.197-0.373 0.293-0.080 0.062-0.159 0.125-0.24 0.186-0.137 0.102-0.278 0.199-0.418 0.297-0.073 0.051-0.144 0.102-0.218 0.151-0.145 0.097-0.291 0.189-0.439 0.281-0.073 0.046-0.146 0.093-0.22 0.138-0.146 0.088-0.293 0.171-0.441 0.254-0.081 0.045-0.161 0.091-0.243 0.136-0.14 0.075-0.282 0.146-0.423 0.217-0.095 0.047-0.189 0.095-0.284 0.14-0.13 0.062-0.26 0.119-0.392 0.177-0.111 0.049-0.222 0.099-0.335 0.146-0.117 0.049-0.235 0.093-0.353 0.139-0.13 0.050-0.259 0.101-0.39 0.147-0.104 0.037-0.209 0.072-0.314 0.106-0.146 0.049-0.291 0.097-0.439 0.141-0.094 0.028-0.188 0.053-0.282 0.080-0.158 0.044-0.316 0.089-0.476 0.129-0.090 0.022-0.179 0.042-0.269 0.062-0.164 0.037-0.328 0.075-0.494 0.108-0.092 0.018-0.184 0.033-0.276 0.050-0.163 0.030-0.325 0.059-0.49 0.083-0.107 0.016-0.215 0.027-0.322 0.041-0.149 0.019-0.298 0.039-0.448 0.053-0.146 0.014-0.291 0.023-0.437 0.033-0.115 0.008-0.228 0.019-0.343 0.024-0.529 0.026-1.059 0.026-1.588 0-0.115-0.005-0.229-0.016-0.343-0.024-0.146-0.011-0.291-0.019-0.437-0.033-0.151-0.014-0.3-0.035-0.448-0.053-0.108-0.014-0.215-0.025-0.322-0.041-0.164-0.024-0.327-0.053-0.49-0.083-0.092-0.016-0.184-0.031-0.276-0.050-0.166-0.033-0.33-0.071-0.494-0.108-0.090-0.021-0.18-0.040-0.269-0.062-0.16-0.040-0.318-0.084-0.476-0.129-0.094-0.026-0.189-0.052-0.282-0.080-0.148-0.044-0.293-0.093-0.439-0.141-0.104-0.035-0.209-0.069-0.314-0.106-0.131-0.046-0.26-0.097-0.39-0.147-0.118-0.045-0.236-0.091-0.353-0.139-0.113-0.046-0.224-0.097-0.335-0.146-0.131-0.058-0.262-0.116-0.392-0.177-0.095-0.045-0.189-0.093-0.284-0.14-0.142-0.071-0.283-0.141-0.423-0.217-0.082-0.044-0.162-0.090-0.243-0.136-0.148-0.082-0.295-0.166-0.441-0.254-0.074-0.044-0.146-0.091-0.22-0.138-0.147-0.092-0.294-0.184-0.439-0.281-0.073-0.049-0.145-0.101-0.218-0.151-0.14-0.097-0.28-0.195-0.418-0.297-0.081-0.060-0.16-0.123-0.24-0.186-0.125-0.097-0.25-0.192-0.373-0.293-0.105-0.086-0.206-0.177-0.309-0.266-0.094-0.081-0.189-0.159-0.281-0.244-0.197-0.178-0.389-0.36-0.575-0.547l-159.999-159.999c-6.249-6.248-6.249-16.379 0-22.628s16.379-6.248 22.628 0l132.686 132.687v-825.372c0-8.837 7.164-16 16-16s16 7.163 16 16v825.372l132.687-132.687c3.124-3.124 7.219-4.687 11.313-4.687s8.189 1.562 11.313 4.687c6.248 6.248 6.248 16.379 0 22.628l-159.997 159.999zM891.313 187.313c-6.248 6.249-16.379 6.249-22.628 0l-132.687-132.687v825.373c0 8.836-7.164 16-16 16s-16-7.164-16-16v-825.372l-132.687 132.687c-6.248 6.249-16.379 6.249-22.628 0s-6.248-16.379 0-22.628l159.999-159.999c0.187-0.187 0.379-0.37 0.575-0.547 0.091-0.082 0.185-0.159 0.276-0.24 0.104-0.091 0.208-0.183 0.315-0.27 0.12-0.099 0.243-0.193 0.364-0.287 0.082-0.063 0.164-0.13 0.247-0.192 0.136-0.101 0.274-0.197 0.412-0.293 0.074-0.052 0.147-0.104 0.222-0.155 0.143-0.096 0.289-0.188 0.435-0.279 0.074-0.047 0.149-0.095 0.225-0.14 0.144-0.087 0.29-0.168 0.435-0.25 0.083-0.047 0.165-0.094 0.249-0.139 0.138-0.074 0.277-0.144 0.417-0.213 0.097-0.048 0.193-0.097 0.291-0.144 0.128-0.060 0.256-0.117 0.386-0.174 0.113-0.050 0.227-0.101 0.341-0.148s0.23-0.092 0.345-0.137c0.132-0.051 0.264-0.102 0.397-0.149 0.101-0.036 0.204-0.069 0.305-0.103 0.149-0.050 0.297-0.099 0.447-0.144 0.091-0.027 0.181-0.052 0.272-0.077 0.161-0.046 0.323-0.091 0.487-0.132 0.084-0.021 0.17-0.039 0.255-0.059 0.168-0.039 0.336-0.077 0.507-0.111 0.088-0.018 0.176-0.031 0.263-0.047 0.167-0.030 0.334-0.060 0.503-0.085 0.101-0.015 0.203-0.026 0.304-0.039 0.155-0.020 0.31-0.041 0.466-0.056 0.135-0.013 0.271-0.021 0.406-0.031 0.124-0.009 0.248-0.021 0.374-0.027 0.264-0.013 0.527-0.020 0.791-0.020s0.527 0.007 0.791 0.020c0.126 0.006 0.249 0.018 0.374 0.027 0.136 0.010 0.271 0.018 0.406 0.031 0.157 0.015 0.312 0.036 0.466 0.056 0.101 0.013 0.204 0.024 0.304 0.039 0.169 0.024 0.336 0.055 0.503 0.085 0.088 0.016 0.176 0.030 0.263 0.047 0.17 0.034 0.339 0.072 0.507 0.111 0.085 0.019 0.17 0.038 0.255 0.059 0.164 0.041 0.325 0.086 0.487 0.132 0.091 0.026 0.181 0.050 0.272 0.077 0.15 0.045 0.299 0.094 0.447 0.144 0.102 0.034 0.205 0.067 0.305 0.103 0.133 0.048 0.265 0.099 0.397 0.149 0.116 0.045 0.231 0.089 0.345 0.137s0.228 0.098 0.341 0.148c0.129 0.057 0.258 0.114 0.386 0.174 0.098 0.047 0.194 0.096 0.291 0.144 0.139 0.069 0.279 0.139 0.417 0.213 0.083 0.045 0.166 0.092 0.249 0.139 0.146 0.082 0.292 0.163 0.435 0.25 0.075 0.046 0.149 0.094 0.225 0.14 0.146 0.091 0.292 0.183 0.435 0.279 0.075 0.051 0.148 0.103 0.222 0.155 0.139 0.096 0.276 0.192 0.412 0.293 0.083 0.063 0.165 0.128 0.247 0.192 0.122 0.094 0.245 0.188 0.364 0.287 0.107 0.088 0.21 0.179 0.315 0.27 0.092 0.080 0.186 0.157 0.276 0.24 0.197 0.178 0.389 0.36 0.575 0.547l159.999 159.999c6.25 6.248 6.25 16.379 0.001 22.627z" />
<glyph unicode="&#xe604;" glyph-name="pdf-page-icon" data-tags="pdf-page-icon-32" d="M827.313 683.312l-176 176c-3 3-7.063 4.688-11.313 4.688h-383.982c-35.297 0-64-28.703-64-64v-672c0-35.297 28.703-64 64-64h511.982c35.297 0 64 28.703 64 64v544c0 4.25-1.688 8.313-4.688 11.313zM793.375 672h-121.375c-17.64 0-32 14.36-32 32v121.375l153.375-153.375zM768 96h-511.982c-17.64 0-32 14.36-32 32v672c0 17.64 14.36 32 32 32h351.982v-128c0-35.297 28.703-64 64-64h128v-512c0-17.64-14.36-32-32-32zM616.97 396.515c20.985 2.485 40.485 3.5 58.485 3.5 33.515 0 76.015-4.015 88.515-24.515 3.5-4.985 6.5-13.985 1-26-0.5-0.485-1-1.485-1.515-2v-0.5c-1.485-9-9-19-35.5-19-32 0-80.469 14.485-122.453 36.515-69.531-7.5-142.5-23-196.015-41.515-51.469-87.984-90.984-130.999-120.984-130.999-5 0-9.485 1-13.985 3.531l-12.015 5.985c-1.485 0.5-1.985 1.515-2.985 2.485-2.515 2.5-4.5 8.031-3 18 4.985 23.015 31.985 61.515 94 94.015 3.985 2.5 9 0.985 11.485-3 0.515-0.531 1.015-1.5 1.015-2.015 15.485 25.5 33.469 58.015 53.5 98.5 22.485 45 39.969 89.015 51.969 131-15.985 54.5-21 110.485-12 143.485 3.5 12.531 11.015 20.015 21 20.015h11.015c7.5 0 13.485-2.5 17.485-7.485 6-7.015 7.5-18 4.5-34.031-0.5-1.485-0.985-3-2.015-3.985 0.5-1.5 0.5-2.5 0.5-4 0-5 0-10.015 0-15-0.5-31.485-0.985-61.5-6.985-96.015 17.5-52.469 43.515-94.985 72.985-118.985 12.531-9.985 26.515-19 41.999-27.985zM355.501 298.015c-37.5-28.999-61-61.999-68.5-79.015 14.985 7 36.531 28.516 68.5 79.015zM565.97 388.984c-4.985 4.015-9.969 7.531-14.468 11.515-24.531 21.5-46.5 51.5-63.515 88.015-9.515-30.5-23.515-63-41.485-98.5-7.5-14.015-15-28.015-22.5-41.5 43.968 17.501 92.985 31.501 141.968 40.469zM484.97 613c1.515 8 2.515 15.5 3.531 22 0.985 8.485 2.485 15.485 3.485 21.5 0.5 1.515 1 2.485 1.985 3.985-0.485 0.515-0.485 1.515-0.985 2.5-0.5 9-3.5 14.485-6.5 18 0-0.985-0.515-1.485-0.515-1.985-4.968-14-4.968-37.985-1-66zM676.955 368.531c24.531-9.015 47-14.031 62.015-14.031 4.515 0 6.985 0 9 0.5 0 0.515-0.515 1.015-1.015 1.5-2.485 2.515-15.485 12.031-70 12.031z" />
<glyph unicode="&#xe605;" glyph-name="pdf-file-icon" data-tags="pdf-file-icon" d="M800 384v288c0 4.244-1.686 8.313-4.686 11.314l-176 176c-3.001 3.001-7.070 4.686-11.314 4.686h-416c-35.29 0-64-28.71-64-64v-736c0-35.289 28.71-64 64-64h544c35.289 0 64 28.711 64 64v32c35.29 0 64 28.71 64 64v160c0 35.29-28.71 64-64 64zM761.372 672h-121.372c-17.645 0-32 14.355-32 32v121.372l153.372-153.372zM768 64c0-17.645-14.355-32-32-32h-544c-17.645 0-32 14.355-32 32v736c0 17.645 14.355 32 32 32h384v-128c0-35.29 28.71-64 64-64h128v-256h-480c-35.29 0-64-28.71-64-64v-160c0-35.29 28.71-64 64-64h480v-32zM832 160c0-17.645-14.355-32-32-32h-512c-17.645 0-32 14.355-32 32v160c0 17.645 14.355 32 32 32h512c17.645 0 32-14.355 32-32v-160zM368 480c38.465 0 74.625 14.975 101.82 42.166 27.2 27.195 42.18 63.36 42.18 101.834s-14.979 74.639-42.18 101.834c-27.195 27.191-63.356 42.166-101.82 42.166s-74.625-14.975-101.82-42.166c-27.2-27.195-42.18-63.36-42.18-101.834s14.979-74.639 42.18-101.834c27.195-27.191 63.356-42.166 101.82-42.166zM478.867 640h-94.867v94.867c23.847-3.39 45.863-14.334 63.195-31.663 17.335-17.332 28.283-39.351 31.672-63.204zM288.805 703.205c17.332 17.329 39.349 28.273 63.195 31.663v-110.867c0-8.836 7.164-16 16-16h110.867c-3.39-23.852-14.337-45.872-31.673-63.205-21.152-21.148-49.277-32.795-79.195-32.795s-58.043 11.647-79.195 32.795c-21.155 21.151-32.805 49.28-32.805 79.205s11.651 58.053 32.805 79.204zM400 320h-32c-8.836 0-16-7.164-16-16v-128c0-8.836 7.164-16 16-16s16 7.164 16 16v48h16c26.468 0 48 21.532 48 48s-21.532 48-48 48zM400 256h-16v32h16c8.823 0 16-7.177 16-16s-7.177-16-16-16zM528 320h-32c-8.836 0-16-7.164-16-16v-128c0-8.836 7.164-16 16-16h32c26.468 0 48 21.532 48 48v64c0 26.468-21.532 48-48 48zM528 192h-16v96h16c8.823 0 16-7.177 16-16v-64c0-8.823-7.177-16-16-16zM688 320h-64c-8.836 0-16-7.164-16-16v-128c0-8.836 7.164-16 16-16s16 7.164 16 16v48h16c8.836 0 16 7.164 16 16s-7.164 16-16 16h-16v32h48c8.836 0 16 7.164 16 16s-7.164 16-16 16z" />
<glyph unicode="&#xe606;" glyph-name="padlock" data-tags="padlock" d="M704 567.367v120.633c0 114.688-93.313 208-208 208s-208-93.313-208-208v-120.633c-77.813-61.594-128-156.649-128-263.367 0-185.274 150.735-336 336-336s336 150.726 336 336c0 106.719-50.188 201.773-128 263.367zM320 688c0 97.047 78.953 176 176 176s176-78.953 176-176v-98.328c-51.265 31.703-111.422 50.328-176 50.328s-124.735-18.625-176-50.328v98.328zM496 0c-167.625 0-304 136.375-304 304s136.375 304 304 304 304-136.375 304-304-136.375-304-304-304zM496 512c-114.688 0-208-93.313-208-208 0-114.696 93.313-208 208-208s208 93.304 208 208c0 114.688-93.313 208-208 208zM496 128c-97.047 0-176 78.953-176 176s78.953 176 176 176 176-78.953 176-176-78.953-176-176-176zM496 384c-26.469 0-48-21.531-48-48 0-20.828 13.422-38.422 32-45.047v-82.953c0-8.836 7.156-16 16-16s16 7.164 16 16v82.946c18.578 6.633 32 24.226 32 45.054 0 26.469-21.531 48-48 48zM496 320c-8.828 0-16 7.172-16 16s7.172 16 16 16 16-7.172 16-16-7.172-16-16-16z" />
<glyph unicode="&#xe612;" glyph-name="cross" data-tags="error" d="M240.999 718.997c-149.684-149.684-149.68-392.313 0.003-541.996 149.677-149.677 392.311-149.685 541.995-0.001 149.696 149.696 149.697 392.303 0.002 541.998-149.691 149.691-392.322 149.676-542-0.001zM761.313 198.684c-137.473-137.473-361.174-137.475-498.639-0.010-137.46 137.459-137.471 361.172 0.002 498.645 137.467 137.466 361.168 137.467 498.639-0.004 137.465-137.465 137.463-361.167-0.002-498.631v0zM360.558 621.12l-21.092-21.091 152.382-152.382-152.382-152.382 20.506-20.506 152.382 152.382 151.321-151.32 20.859 20.859-151.321 151.32 151.675 151.674-20.506 20.506-151.463-151.463-152.361 152.403z" />
<glyph unicode="&#xe613;" glyph-name="doc-time" data-tags="all-glyphs_32px copy-17" d="M432 128h-176c-17.64 0-32 14.351-32 32v640c0 17.649 14.36 32 32 32h288v-128c0-35.289 28.703-64 64-64h128v-176c0-8.836 7.156-16 16-16s16 7.164 16 16v208c0 4.242-1.688 8.313-4.688 11.313l-176 176c-3 3-7.063 4.688-11.313 4.688h-320c-35.297 0-64-28.711-64-64v-640c0-35.289 28.703-64 64-64h176c8.844 0 16 7.164 16 16s-7.156 16-16 16zM729.375 672h-121.375c-17.64 0-32 14.351-32 32v121.375l153.375-153.375zM688 416c-114.688 0-208-93.304-208-208s93.313-208 208-208 208 93.304 208 208-93.313 208-208 208zM688 32c-97.047 0-176 78.953-176 176s78.953 176 176 176 176-78.953 176-176-78.953-176-176-176zM784 223.969h-80v112c0 8.836-7.156 16-16 16s-16-7.164-16-16v-128c0-8.836 7.156-16 16-16h96c8.844 0 16 7.164 16 16s-7.156 16-16 16z" />
<glyph unicode="&#xe614;" glyph-name="settings" data-tags="settings" d="M576.226 836.539v-78.417l24.131-6.238c27.305-7.053 53.352-18.020 77.42-32.631l21.586-13.103 56.117 56.12 68.247-68.25-56.981-56.97 12.271-21.369c13.604-23.691 23.785-49.351 30.226-76.247l5.923-24.666h82.809v-96.532h-84.662l-6.519-23.615c-7.039-25.468-17.594-49.901-31.389-72.619l-13.103-21.604 61.427-61.416-68.247-68.25-62.292 62.281-21.349-12.271c-22.152-12.743-46.204-22.484-71.466-29.005l-24.148-6.223v-89.053h-96.523v89.053l-24.148 6.223c-25.264 6.521-49.315 16.262-71.468 29.005l-21.367 12.271-62.273-62.297-68.247 68.267 61.428 61.416-13.104 21.604c-13.793 22.718-24.349 47.151-31.388 72.619l-6.52 23.615h-84.661v96.532h82.809l5.923 24.666c6.441 26.896 16.622 52.555 30.227 76.247l12.271 21.369-56.98 56.97 68.245 68.25 56.117-56.12 21.586 13.103c24.069 14.611 50.115 25.579 77.419 32.631l24.132 6.237v78.416l96.519 0.001zM527.965 321.67c79.839 0 144.785 64.968 144.785 144.831 0 79.845-64.946 144.813-144.785 144.813-79.841 0-144.785-64.968-144.785-144.813 0-79.863 64.945-144.831 144.785-144.831zM608.402 868.718h-160.874v-85.677c-30.729-7.935-59.605-20.222-86.060-36.278l-61.017 61.021-113.743-113.765 62.307-62.314c-15.034-26.173-26.393-54.63-33.62-84.762h-89.611v-160.887h92.345c7.951-28.769 19.762-55.823 34.894-80.758l-66.314-66.318 113.743-113.782 67.615 67.639c24.635-14.156 51.294-24.997 79.461-32.257v-96.296h160.874v96.296c28.169 7.26 54.827 18.101 79.461 32.257l67.617-67.622 113.743 113.765-66.315 66.318c15.13 24.934 26.945 51.991 34.894 80.758h92.345v160.887h-89.613c-7.226 30.135-18.586 58.589-33.62 84.762l62.308 62.314-113.743 113.765-61.018-61.021c-26.456 16.056-55.331 28.342-86.059 36.278v85.677h-0.001zM527.965 353.847c-62.213 0-112.612 50.436-112.612 112.653 0 62.215 50.399 112.635 112.612 112.635 62.211 0 112.61-50.418 112.61-112.635s-50.399-112.653-112.611-112.653v0h0.001z" />
<glyph unicode="&#xe615;" glyph-name="trash" data-tags="all-glyphs_32px-13" d="M624.231 671.941h-31.953l-15.976-511.951h31.953zM799.973 767.932h-159.765v31.996c0 35.997-27.959 63.994-63.906 63.994h-159.765c-35.948 0-63.906-27.997-63.906-63.994v-31.996h-159.765v-31.996h33.028l46.854-609.941c3.994-37.996 29.956-61.994 63.906-61.994h319.531c31.953 0 59.912 25.997 63.906 61.994l46.854 609.941h33.028v31.996zM384.582 799.928c0 17.998 13.979 31.997 31.953 31.997h159.765c17.974 0 31.953-13.998 31.953-31.997v-31.996h-223.672v31.996zM688.137 129.994c-1.997-15.999-11.983-33.997-31.953-33.997h-319.531c-19.97 0-29.956 17.998-31.953 33.997l-46.547 605.942h476.53l-46.546-605.942zM416.535 159.99l-15.976 511.951h-31.953l15.976-511.951zM480.442 671.941h31.953v-511.95h-31.953v511.95z" />
<glyph unicode="&#xe616;" glyph-name="thumbsup" data-tags="thumbsup" d="M962.151 463.725c0 39.399-31.213 69.791-72.61 69.791h-261.053c16.667 38.666 46.624 119.878 46.624 203.691 0 95.64-47.999 115.713-88.276 115.713-24.971 0-61.030-18.909-61.030-53.122 0-14.442-2.277-142.847-80.722-208.65-83.573-70.101-107.302-88.442-153.093-88.442-53.39 0-148.23-1.163-148.23-1.163l-15.832-0.209v-373.333h174.718c11.351 0 45.379-15.142 75.428-28.494 49.597-22.073 105.78-47.104 143.631-47.104l252.318 0.090c41.084 0 74.523 32.289 74.523 71.998 0 16.145-5.765 30.93-15.115 42.966 30.124 8.633 52.346 36.112 52.346 68.939 0 16.516-5.809 31.54-15.174 43.712 29.6 9.47 51.285 36.934 51.285 69.64 0 16.458-5.644 31.541-14.814 43.773 31.542 7.899 55.078 36.245 55.078 70.204zM889.555 423.224h-55.736v-32.078h14.591c22.821 0 41.398-18.58 41.398-41.398 0-22.79-18.577-41.368-41.398-41.368h-46.685v-32.080h12.068c21.998 0 39.889-17.921 39.889-39.905 0-22.029-17.892-39.904-39.89-39.904h-44.133v-32.111h4.376c23.387 0 42.413-17.921 42.413-39.89 0-22.028-19.026-39.919-42.413-39.919h-40.979v-0.088h-211.353c-31.010 0-86.238 24.581-130.6 44.323-43.587 19.386-71.156 31.304-88.459 31.304h-142.615v309.561c29.19 0.313 92.153 0.986 131.976 0.986 59.333 0 90.487 26.119 173.709 95.938 87.74 73.566 92.191 207.2 92.191 233.247 0 13.081 20.102 21.027 28.941 21.027 16.787 0 56.183 0 56.183-83.648 0-105.721-53.376-211.352-53.898-212.412l-11.932-23.328h196.53c0.575-0.403 0.917 0 0.917 0h114.892c23.477 0 40.515-16.265 40.515-37.709 0-22.328-18.175-40.487-40.515-40.487l0.016-0.060z" />
<glyph unicode="&#xe617;" glyph-name="plus-circle" data-tags="all-glyphs_32px-03" d="M511.997 831.25c-211.685 0-383.247-171.569-383.247-383.251 0-211.673 171.563-383.249 383.247-383.249 211.703 0 383.253 171.549 383.253 383.249 0 211.696-171.577 383.251-383.253 383.251zM511.997 95.415c-194.416 0-352.597 158.181-352.597 352.584 0 194.398 158.182 352.594 352.597 352.594 194.407 0 352.588-158.18 352.588-352.594 0-194.404-158.181-352.584-352.588-352.584zM527.328 677.5h-29.828v-215.5h-215.5v-29h215.5v-214h29.5v214h214.5v29h-214.202l0.030 215.5z" />
<glyph unicode="&#xe618;" glyph-name="tick-cirle" data-tags="all-glyphs_32px-12" d="M512 832.268c-212.069 0-384-171.914-384-384s171.931-384 384-384c212.070 0 384 171.915 384 384s-171.93 384-384 384zM512 94.988c-194.805 0-353.28 158.489-353.28 353.28 0 194.789 158.474 353.28 353.28 353.28s353.28-158.49 353.28-353.28c0-194.791-158.475-353.28-353.28-353.28zM704.090 585.367l-246.584-239.115-86.385 86.369c-9.002 9.002-23.58 9.002-32.58 0-9.001-9-9.001-23.579 0-32.581l102.419-102.418c4.5-4.5 10.396-6.751 16.291-6.751 5.775 0 11.564 2.159 16.033 6.496l262.876 254.909c9.135 8.865 9.36 23.445 0.509 32.581-8.891 9.152-23.457 9.36-32.578 0.511v0z" />
<glyph unicode="&#xe619;" glyph-name="clock" data-tags="all-glyphs_32px-04" d="M512 64c-212 0-384 172-384 384s172 384 384 384 384-172 384-384-172-384-384-384zM512 800c-194 0-352-158-352-352s158-352 352-352 352 158 352 352-158 352-352 352zM320 416v32h192v256h32v-288h-224z" />
<glyph unicode="&#xe61a;" glyph-name="tick" data-tags="all-glyphs_32px-05" d="M512 832.5c-212.069 0-384-171.914-384-384s171.931-384 384-384c212.070 0 384 171.915 384 384s-171.93 384-384 384zM512 95.22c-194.805 0-353.28 158.489-353.28 353.28 0 194.789 158.474 353.28 353.28 353.28s353.28-158.49 353.28-353.28c0-194.791-158.475-353.28-353.28-353.28zM704.090 585.599l-246.584-239.115-86.385 86.369c-9.002 9.002-23.58 9.002-32.58 0-9.001-9-9.001-23.579 0-32.581l102.419-102.418c4.5-4.5 10.396-6.751 16.291-6.751 5.775 0 11.564 2.159 16.033 6.496l262.876 254.909c9.135 8.865 9.36 23.445 0.509 32.581-8.891 9.152-23.457 9.36-32.578 0.511v0z" />
<glyph unicode="&#xe61b;" glyph-name="umbrella" data-tags="all-glyphs_32px-06" d="M511.483 875.626v52.3h-31.008v-52.3c-263.571-8.722-480.475-226.49-480.475-493.126 0-17.548 0.658-35.523 2.597-53.45l32.805 1.167c2.001 55.557 46.974 96.964 102.533 96.964 56.648 0 102.683-42.867 102.683-104.886h33.098c0 62.017 46.749 104.886 103.427 104.886 56.043 0 103.33-42.981 103.33-98.782v-256.209c0-40.327 32.155-72.117 72.482-72.117 40.342 0 72.513 27.644 72.513 74.157h-33.1c0-31.008-18.393-41.057-40.458-41.057s-40.429 16.954-40.429 39.021v250.104h0.946c0 62.017 46.088 102.78 102.765 102.78 56.68 0 102.781-40.763 102.781-102.78h33.113c0 62.017 46.114 104.878 102.765 104.878 55.072 0 100.113-42.068 102.536-97.111l33.007-0.486c1.85 17.549 2.758 35.434 2.758 52.635 0 266.65-214.195 484.553-480.253 493.266l-0.417 0.148zM853.854 462.801c-51.405 0-96.248-28.921-119.33-71.14-23.066 42.22-67.925 70.816-119.361 70.816-51.42 0-96.233-28.759-119.313-70.979-23.074 42.22-67.94 70.898-119.352 70.898-51.414 0-96.28-28.718-119.353-70.939-23.073 42.221-67.894 70.92-119.323 70.92-42.009 0-79.472-18.811-104.349-48.651 16.232 239.401 217.337 429.236 462.27 429.236 244.873 0 445.979-189.593 462.24-428.932-24.929 29.765-62.332 48.773-104.159 48.773h0.031v-0.001z" />
<glyph unicode="&#xe61c;" glyph-name="speedometer" data-tags="all-glyphs_32px-01" d="M928 400c0 118.688-48.144 226.336-125.889 304.512-0.271 0.304-0.352 0.673-0.64 0.961s-0.656 0.384-0.977 0.64c-78.159 77.744-185.807 125.888-304.496 125.888s-226.335-48.144-304.495-125.888c-0.32-0.256-0.689-0.352-0.977-0.64s-0.367-0.673-0.64-0.961c-77.744-78.176-125.887-185.824-125.887-304.512 0-112.032 42.72-218.256 120.288-299.055 3.439-3.601 8.128-5.009 12.72-4.656 0.448-0.064 0.88-0.288 1.328-0.288 4.095 0 8.191 1.568 11.311 4.688l54.16 54.16c6.256 6.256 6.256 16.368 0 22.624s-16.368 6.256-22.624 0l-43.648-43.648c-61.985 69.424-97.488 157.199-101.168 250.176h47.632c8.847 0 16 7.168 16 16s-7.153 16-16 16h-47.601c3.889 98.24 43.328 187.456 105.84 255.12l42.432-42.432c3.135-3.12 7.231-4.688 11.328-4.688 4.095 0 8.191 1.568 11.311 4.688 6.256 6.256 6.256 16.367 0 22.624l-42.432 42.432c67.664 62.528 156.88 101.952 255.119 105.856v-47.599c0-8.832 7.153-16 16-16 8.849 0 16.001 7.168 16.001 16v47.599c98.256-3.887 187.455-43.327 255.119-105.84l-42.432-42.432c-6.256-6.256-6.256-16.368 0-22.624 3.12-3.136 7.216-4.704 11.313-4.704 4.095 0 8.191 1.568 11.311 4.688l42.432 42.432c62.496-67.664 101.936-156.896 105.84-255.12h-47.584c-8.849 0-16-7.168-16-16s7.151-16 16-16h47.632c-3.648-92.368-38.689-179.664-99.936-248.88l-42.336 42.336c-6.256 6.256-16.368 6.256-22.624 0s-6.256-16.368 0-22.624l54.16-54.16c0.032-0.032 0.095-0.048 0.128-0.080 0.064-0.048 0.064-0.095 0.128-0.144 1.008-1.009 2.273-1.568 3.472-2.224 0.576-0.336 1.057-0.847 1.664-1.072 1.872-0.784 3.905-1.153 5.905-1.153 2.095 0 4.16 0.401 6.095 1.216 0.689 0.288 1.248 0.865 1.872 1.248 1.153 0.656 2.352 1.216 3.345 2.224 0.064 0.032 0.064 0.097 0.095 0.128 0.032 0.064 0.095 0.064 0.16 0.097 77.519 80.8 120.239 187.040 120.239 299.088h0.002zM480 480c-11.824 0-22.784-3.441-32.32-9.073l-132.368 132.385c-6.256 6.256-16.368 6.256-22.624 0s-6.256-16.368 0-22.624l132.368-132.385c-5.601-9.519-9.055-20.464-9.055-32.303 0-35.296 28.703-64 64-64s64 28.704 64 64-28.704 64-64 64zM480 384c-17.648 0-32 14.336-32 32 0 8.784 3.568 16.736 9.311 22.528 0.032 0.031 0.064 0.031 0.095 0.064s0.032 0.064 0.064 0.097c5.776 5.743 13.744 9.311 22.528 9.311 17.648 0 32-14.352 32-32 0-17.664-14.352-32-32-32v0z" />
<glyph unicode="&#xe61d;" glyph-name="factory" data-tags="factory-icon" d="M863.734 159.993v448.831l-256.291-205.54v205.54l-255.322-204.762v268.044h-0.096v95.788h31.975v32.212h-288v-32.212h32.024v-95.894h0.091v-511.944h-32.24v-32.113l832.149 0.029v32.020h-64.292zM160.024 767.894h160v-63.894h-160v63.894zM320.099 159.993h-63.95v64.063l-32.249-0.031v-64.032h-63.764v512.007h159.963v-512.007zM575.443 159.993h-223.322v203.049l223.322 179.099v-382.148zM831.734 159.993h-224.291v202.272l224.291 179.876v-382.148zM639.876 352h32.249v-32.112h-32.249v32.112zM703.9 352h32.249v-32.112h-32.249v32.112zM767.876 352h32.249v-32.112h-32.249v32.112zM639.876 288.056h32.249v-32.113h-32.249v32.113zM703.9 288.056h32.249v-32.113h-32.249v32.113zM767.876 288.056h32.249v-32.113h-32.249v32.113zM639.876 224.056h32.249v-32.113h-32.249v32.113zM703.876 224.056h32.249v-32.113h-32.249v32.113zM767.876 224.056h32.249v-32.113h-32.249v32.113zM383.753 352h32.249v-32.112h-32.249v32.112zM447.753 352h32.249v-32.112h-32.249v32.112zM511.753 352h32.249v-32.112h-32.249v32.112zM383.753 288.056h32.249v-32.113h-32.249v32.113zM447.753 288.056h32.249v-32.113h-32.249v32.113zM511.753 288.056h32.249v-32.113h-32.249v32.113zM383.753 224.056h32.249v-32.113h-32.249v32.113zM447.753 224.056h32.249v-32.113h-32.249v32.113zM511.753 224.056h32.249v-32.113h-32.249v32.113z" />
<glyph unicode="&#xe623;" glyph-name="plus-sign" horiz-adv-x="896" d="M448 874.496c-235.574 0-426.5-190.926-426.5-426.5s190.926-426.492 426.5-426.492c235.576 0 426.5 190.916 426.5 426.492s-190.924 426.5-426.5 426.5zM448 55.624c-216.348 0-392.38 176.024-392.38 392.372 0 216.35 176.032 392.38 392.38 392.38s392.38-176.030 392.38-392.38c0-216.348-176.032-392.372-392.38-392.372zM465.060 703.896h-34.12v-238.84h-237.708v-34.12h237.708v-237.708h34.12v237.708h238.84v34.12h-238.84z" />
<glyph unicode="&#xe624;" glyph-name="play" horiz-adv-x="640" d="M47.040 746.85l512.316-298.85-512.316-298.848v597.698zM12.92 806.26v-716.52l614.16 358.26-614.16 358.26z" />
<glyph unicode="&#xe625;" glyph-name="aeroplane" horiz-adv-x="960" d="M259.948-14.852l-42.552 200.588-202.168 44.698 41.3 79.186 185.11 10.114c9.498 12.362 30.722 39.484 43.984 52.73l168.668 168.684-351.646 172.416 89.032 89.014 445.826-78.204 157.856 157.856c18.71 18.726 47.864 28.622 84.3 28.622 24.84 0 44.632-4.566 45.464-4.764l9.596-2.248 2.848-9.43c14.994-49.614 5.98-105.542-21.426-132.964l-158.604-158.606 77.902-444.008-89.016-89.032-171.732 350.23-157.538-157.572c-16.56-16.56-51.928-49.148-65.058-61.178l-13.778-173.614-78.368-42.518zM66.074 254.126l180.146-39.802 37.62-177.398 21.924 11.896 13.378 168.568 4.964 4.532c0.5 0.45 49.348 45.082 68.906 64.642l191.31 191.342 171.732-350.23 42.7 42.716-77.902 444.042 171.166 171.134c14.86 14.86 23.856 51.128 15.476 89.048-6.898 1.032-16.826 2.116-27.838 2.116-18.96 0-44.782-3.232-60.178-18.626l-170.384-170.416-445.856 78.202-42.716-42.7 351.646-172.416-202.422-202.44c-15.442-15.426-45.382-55.094-45.682-55.478l-4.782-6.33-181.496-9.928-11.712-22.474z" />
<glyph unicode="&#xe626;" glyph-name="copy" horiz-adv-x="960" d="M821.196 686.84v136.48h-801.812v-614.16h119.42v-136.48h801.812v614.16h-119.42zM53.504 243.28v545.92h733.572v-102.36h-648.272v-443.56h-85.3zM906.496 106.8h-733.572v545.92h733.572v-545.92z" />
<glyph unicode="&#xe627;" glyph-name="mobile" horiz-adv-x="576" d="M514.762 908.62h-453.522c-25.508 0-46.2-20.71-46.2-46.216v-828.826c0-25.54 20.692-46.198 46.2-46.198h453.522c25.508 0 46.198 20.658 46.198 46.198v828.826c0 25.506-20.69 46.216-46.198 46.216zM526.84 33.578c0-6.664-5.414-12.078-12.078-12.078h-453.522c-6.666 0-12.080 5.414-12.080 12.078v158.404h477.68v-158.404zM526.84 226.102h-477.68v545.338h477.68v-545.338zM526.84 805.56h-477.68v56.844c0 6.664 5.414 12.096 12.080 12.096h453.522c6.666 0 12.078-5.432 12.078-12.096v-56.844zM236.82 123.86h102.36v-34.12h-102.36v34.12z" />
<glyph unicode="&#xe629;" glyph-name="paper-aeroplane" horiz-adv-x="896" d="M332.128 328.412l152.524-306.912 389.798 853-852.9-409.34 310.578-136.748zM341.192 361.668l-238.090 104.826 653.876 313.81-415.786-418.636zM483.386 100.302l-118.004 237.476 419.486 422.332-301.482-659.808z" />
<glyph unicode="&#xe62b;" glyph-name="book" horiz-adv-x="832" d="M416 857.44h-272.96c-81.636 0-136.48-54.844-136.48-136.48v-567.462c0-26.954 10.044-114.938 139.41-114.938h679.47v818.88h-409.44zM381.88 823.32v-326.388l-83.568 76.102-92.78-78.068v328.354h176.348zM143.040 823.32h28.372v-401.658l126 106.024 118.588-107.974v403.608h375.32v-562.98h-648.28c-43.418 0-78.636-12.96-102.36-35.62v496.24c0 62.176 40.184 102.36 102.36 102.36zM145.97 72.68c-78.218 0-100.826 35.486-104.608 69.442 0.066 52.662 38.052 84.098 101.678 84.098h648.28v-153.54h-645.35z" />
<glyph unicode="&#xe62c;" glyph-name="notes" horiz-adv-x="832" d="M792.946 825.674c-9.996 9.98-23.108 14.976-36.204 14.976-13.11 0-26.206-4.996-36.186-14.976l-150.59-150.574v28.522h-545.92v-648.272h648.28v545.912h-31.386l152.006 152.026c20.010 19.956 20.010 52.392 0 72.386zM638.206 89.47h-580.040v580.032h506.22l-267.38-267.362v-73.838h71.006l270.194 270.228v-509.060zM768.822 777.408l-414.938-414.986h-22.758v25.59l413.572 413.554c4.332 4.332 9.396 4.964 12.044 4.964 2.65 0 7.732-0.648 12.078-4.996 4.366-4.348 5.016-9.43 5.016-12.078 0.002-2.634-0.648-7.682-5.014-12.048z" />
<glyph unicode="&#xe62d;" glyph-name="fast-foward" horiz-adv-x="960" d="M2.32 720.96v-545.92l477.68 272.978-477.68 272.942zM36.44 662.166l374.788-214.15-374.788-214.182v428.332zM480 720.96v-545.92l477.68 272.978-477.68 272.942zM514.12 662.166l374.788-214.15-374.788-214.182v428.332z" />
<glyph unicode="&#xe62e;" glyph-name="news" horiz-adv-x="896" d="M226.22 874.5v-477.68h-204.72c0 0 0-210.85 0-278.99 0-68.156 63.442-96.33 110.456-96.33 46.998 0 520.33 0 640.184 0 51.714 0 102.36 50.298 102.36 102.36 0 37.586 0 750.64 0 750.64h-648.28zM131.956 55.62c-21.242 0-76.336 11.18-76.336 62.21v244.87h170.6v-230.16c0-22.84-29.854-76.92-76.918-76.92h-17.346zM840.38 123.86c0-33.152-35.068-68.24-68.24-68.24h-547.602c22.974 23.942 35.802 55.378 35.802 76.92v707.84h580.040v-716.52zM328.58 772.14h443.56v-34.12h-443.56v34.12zM328.58 311.52h443.56v-34.12h-443.56v34.12zM328.58 192.1h443.56v-34.12h-443.56v34.12zM772.14 652.72h-443.56v-255.9h443.56v255.9zM738.020 430.94h-375.32v187.66h375.32v-187.66z" />
<glyph unicode="&#xe631;" glyph-name="mouse" horiz-adv-x="512" d="M273.060 686.008v52.712c0 15.578 32.92 36.186 59.376 52.764 37.902 23.724 77.104 48.282 77.104 84.052v84.264h-34.12v-84.266c0-16.878-33.87-38.084-61.094-55.144-37.068-23.192-75.386-47.198-75.386-81.67v-52.712c-133.332-8.564-238.84-116.022-238.84-247.654v-253.666c0-137.23 114.572-248.488 255.9-248.488 141.326 0 255.9 111.256 255.9 248.488v253.666c0 131.632-105.51 239.090-238.84 247.654zM477.78 438.354v-24.474h-204.72v238.008c114.32-8.482 204.72-100.896 204.72-213.534zM34.22 438.354c0 112.638 90.398 205.052 204.72 213.534v-238.008h-204.72v24.474zM256-29.68c-122.286 0-221.78 96.162-221.78 214.368v195.072h443.56v-195.072c0-118.206-99.496-214.368-221.78-214.368z" />
<glyph unicode="&#xe632;" glyph-name="more-options" d="M102.56 550.36c-56.544 0-102.36-45.832-102.36-102.36s45.816-102.36 102.36-102.36c56.51 0 102.36 45.832 102.36 102.36s-45.85 102.36-102.36 102.36zM102.56 379.76c-37.652 0-68.24 30.604-68.24 68.24 0 37.634 30.588 68.24 68.24 68.24 37.618 0 68.24-30.606 68.24-68.24 0-37.636-30.622-68.24-68.24-68.24zM921.44 550.36c-56.544 0-102.36-45.832-102.36-102.36s45.816-102.36 102.36-102.36c56.51 0 102.36 45.832 102.36 102.36s-45.85 102.36-102.36 102.36zM921.44 379.76c-37.618 0-68.24 30.604-68.24 68.24 0 37.634 30.622 68.24 68.24 68.24s68.24-30.606 68.24-68.24c0-37.636-30.622-68.24-68.24-68.24zM512 550.36c-56.544 0-102.36-45.832-102.36-102.36s45.816-102.36 102.36-102.36c56.51 0 102.36 45.832 102.36 102.36s-45.85 102.36-102.36 102.36zM512 379.76c-37.618 0-68.24 30.604-68.24 68.24 0 37.634 30.622 68.24 68.24 68.24s68.24-30.606 68.24-68.24c0-37.636-30.622-68.24-68.24-68.24z" />
<glyph unicode="&#xe633;" glyph-name="cresent-moon" horiz-adv-x="896" d="M252.21 798.338c-27.090-54.946-41.434-115.638-41.434-178.046 0-223.262 181.644-404.892 404.908-404.892 65.676 0 129.134 15.66 185.978 45.182-68.79-123.802-199.938-203.836-347.598-203.836-219.696 0-398.444 178.73-398.444 398.428 0 143.708 77.104 273.042 196.59 343.164zM345.29 873.374c-186.144-48.278-323.79-216.948-323.79-418.202 0-238.874 193.692-432.548 432.564-432.548 204.388 0 375.222 141.928 420.436 332.436-66.79-65.24-158.038-105.542-258.816-105.542-204.77 0-370.788 166-370.788 370.772 0.002 97.964 38.286 186.812 100.394 253.084v0z" />
<glyph unicode="&#xe634;" glyph-name="screen" horiz-adv-x="896" d="M891.56 226.22v614.16h-887.12v-614.16h426.5v-136.48h-119.42v-34.12h272.96v34.12h-119.42v136.48h426.5zM38.56 806.26h818.88v-545.92h-818.88v545.92z" />
<glyph unicode="&#xe635;" glyph-name="mic" d="M511.996 243.942c103.382 0 187.22 83.82 187.22 187.22v340.434c0 103.4-83.838 187.204-187.22 187.204s-187.22-83.804-187.22-187.204v-340.432c0-103.4 83.836-187.222 187.22-187.222zM358.816 771.596c0 84.454 68.712 153.164 153.18 153.164s153.18-68.712 153.18-153.164v-340.432c0-84.468-68.712-153.18-153.18-153.18s-153.18 68.712-153.18 153.18v340.432zM767.212 601.38v-170.218c0-140.764-114.52-255.3-255.3-255.3s-255.3 114.536-255.3 255.3v170.218h-34.040v-170.218c0-154.56 121.916-280.83 274.582-288.592h-2.178v-171.33h-153.264v-34.040h340.4v34.040h-153.096v171.33h-2.344c152.666 7.762 274.58 134.032 274.58 288.592v170.218h-34.040z" />
<glyph unicode="&#xe636;" glyph-name="navbar" horiz-adv-x="832" d="M6.56 738.020v-136.48h818.88v136.48h-818.88zM791.32 635.66h-750.64v68.24h750.64v-68.24zM6.56 379.76h818.88v136.48h-818.88v-136.48zM40.68 482.12h750.64v-68.24h-750.64v68.24zM6.56 157.98h818.88v136.48h-818.88v-136.48zM40.68 260.34h750.64v-68.24h-750.64v68.24z" />
<glyph unicode="&#xe637;" glyph-name="map-folded" horiz-adv-x="896" d="M673.744 851.192l-21.024 10.512-17.060-8.512v-0.018l-187.66-93.828-204.72 102.36-221.78-110.89v-716.52l221.78 110.89 204.72-102.36 204.72 102.36 221.78-110.89v716.52l-200.756 100.376zM226.22 174.808l-170.6-85.3v640.216l170.6 85.3v-640.216zM430.94 89.508l-170.6 85.3v640.216l170.6-85.3v-640.216zM635.66 174.808l-170.6-85.3v640.216l170.6 85.3v-640.216zM840.38 89.508l-170.6 85.3v640.216l170.6-85.3v-640.216z" />
<glyph unicode="&#xe638;" glyph-name="location-pin" horiz-adv-x="704" d="M352.018 925.696c169.318 0 307.062-137.762 307.062-307.096 0-53.846-14.26-106.926-41.266-153.558l-265.814-460.602-265.846 460.636c-26.974 46.6-41.234 99.678-41.234 153.524 0 169.334 137.762 307.096 307.098 307.096zM352.018 499.196c65.842 0 119.402 53.564 119.402 119.404 0 65.822-53.562 119.386-119.402 119.386-65.858 0-119.438-53.564-119.438-119.386 0-65.84 53.578-119.404 119.438-119.404zM352.018 959.816c-188.444 0-341.218-152.806-341.218-341.216 0-62.226 16.742-120.388 45.832-170.618l295.368-511.798 295.368 511.8c29.090 50.23 45.832 108.39 45.832 170.618 0 188.408-152.774 341.214-341.182 341.214v0zM352.018 533.316c-47.114 0-85.318 38.168-85.318 85.284 0 47.064 38.202 85.266 85.318 85.266 47.098 0 85.282-38.202 85.282-85.266 0-47.116-38.186-85.284-85.282-85.284v0z" />
<glyph unicode="&#xe639;" glyph-name="sort" data-tags="sort" d="M315.315 891.312c-0.187 0.187-0.379 0.37-0.575 0.547-0.093 0.083-0.188 0.162-0.281 0.244-0.103 0.089-0.204 0.179-0.309 0.266-0.122 0.101-0.248 0.197-0.373 0.293-0.080 0.062-0.159 0.125-0.24 0.186-0.137 0.102-0.278 0.199-0.418 0.297-0.073 0.051-0.144 0.102-0.218 0.151-0.145 0.097-0.291 0.189-0.439 0.281-0.073 0.046-0.146 0.093-0.22 0.138-0.146 0.088-0.293 0.171-0.441 0.254-0.081 0.045-0.161 0.091-0.243 0.136-0.14 0.075-0.282 0.146-0.423 0.217-0.095 0.047-0.189 0.095-0.284 0.14-0.13 0.062-0.26 0.119-0.392 0.177-0.111 0.049-0.222 0.099-0.335 0.146-0.117 0.049-0.235 0.093-0.353 0.139-0.13 0.050-0.259 0.101-0.39 0.147-0.104 0.037-0.209 0.072-0.314 0.106-0.146 0.049-0.291 0.097-0.439 0.141-0.094 0.028-0.188 0.053-0.282 0.080-0.158 0.044-0.316 0.089-0.476 0.129-0.090 0.022-0.179 0.042-0.269 0.062-0.164 0.037-0.328 0.075-0.494 0.108-0.092 0.018-0.184 0.033-0.276 0.050-0.163 0.030-0.325 0.059-0.49 0.083-0.107 0.016-0.215 0.027-0.322 0.041-0.149 0.019-0.298 0.039-0.448 0.053-0.146 0.014-0.291 0.023-0.437 0.033-0.115 0.008-0.228 0.019-0.343 0.024-0.529 0.026-1.059 0.026-1.588 0-0.115-0.005-0.229-0.016-0.343-0.024-0.146-0.011-0.291-0.019-0.437-0.033-0.151-0.014-0.3-0.035-0.448-0.053-0.108-0.014-0.215-0.025-0.322-0.041-0.164-0.024-0.327-0.053-0.49-0.083-0.092-0.016-0.184-0.031-0.276-0.050-0.166-0.033-0.33-0.071-0.494-0.108-0.090-0.021-0.18-0.040-0.269-0.062-0.16-0.040-0.318-0.084-0.476-0.129-0.094-0.026-0.189-0.052-0.282-0.080-0.148-0.044-0.293-0.093-0.439-0.141-0.104-0.035-0.209-0.069-0.314-0.106-0.131-0.046-0.26-0.097-0.39-0.147-0.118-0.045-0.236-0.091-0.353-0.139-0.113-0.046-0.224-0.097-0.335-0.146-0.131-0.058-0.262-0.116-0.392-0.177-0.095-0.045-0.189-0.093-0.284-0.14-0.142-0.071-0.283-0.141-0.423-0.217-0.082-0.044-0.162-0.090-0.243-0.136-0.148-0.082-0.295-0.166-0.441-0.254-0.074-0.044-0.146-0.091-0.22-0.138-0.147-0.092-0.294-0.184-0.439-0.281-0.073-0.049-0.145-0.101-0.218-0.151-0.14-0.097-0.28-0.195-0.418-0.297-0.081-0.060-0.16-0.123-0.24-0.186-0.125-0.097-0.25-0.192-0.373-0.293-0.105-0.086-0.206-0.177-0.309-0.266-0.094-0.081-0.189-0.159-0.281-0.244-0.197-0.178-0.389-0.36-0.575-0.547l-159.999-159.999c-6.249-6.248-6.249-16.379 0-22.628s16.379-6.248 22.628 0l132.686 132.687v-825.372c0-8.837 7.164-16 16-16s16 7.163 16 16v825.372l132.687-132.687c3.124-3.124 7.219-4.687 11.313-4.687s8.189 1.562 11.313 4.687c6.248 6.248 6.248 16.379 0 22.628l-159.997 159.999zM891.313 187.313c-6.248 6.249-16.379 6.249-22.628 0l-132.687-132.687v825.373c0 8.836-7.164 16-16 16s-16-7.164-16-16v-825.372l-132.687 132.687c-6.248 6.249-16.379 6.249-22.628 0s-6.248-16.379 0-22.628l159.999-159.999c0.187-0.187 0.379-0.37 0.575-0.547 0.091-0.082 0.185-0.159 0.276-0.24 0.104-0.091 0.208-0.183 0.315-0.27 0.12-0.099 0.243-0.193 0.364-0.287 0.082-0.063 0.164-0.13 0.247-0.192 0.136-0.101 0.274-0.197 0.412-0.293 0.074-0.052 0.147-0.104 0.222-0.155 0.143-0.096 0.289-0.188 0.435-0.279 0.074-0.047 0.149-0.095 0.225-0.14 0.144-0.087 0.29-0.168 0.435-0.25 0.083-0.047 0.165-0.094 0.249-0.139 0.138-0.074 0.277-0.144 0.417-0.213 0.097-0.048 0.193-0.097 0.291-0.144 0.128-0.060 0.256-0.117 0.386-0.174 0.113-0.050 0.227-0.101 0.341-0.148s0.23-0.092 0.345-0.137c0.132-0.051 0.264-0.102 0.397-0.149 0.101-0.036 0.204-0.069 0.305-0.103 0.149-0.050 0.297-0.099 0.447-0.144 0.091-0.027 0.181-0.052 0.272-0.077 0.161-0.046 0.323-0.091 0.487-0.132 0.084-0.021 0.17-0.039 0.255-0.059 0.168-0.039 0.336-0.077 0.507-0.111 0.088-0.018 0.176-0.031 0.263-0.047 0.167-0.030 0.334-0.060 0.503-0.085 0.101-0.015 0.203-0.026 0.304-0.039 0.155-0.020 0.31-0.041 0.466-0.056 0.135-0.013 0.271-0.021 0.406-0.031 0.124-0.009 0.248-0.021 0.374-0.027 0.264-0.013 0.527-0.020 0.791-0.020s0.527 0.007 0.791 0.020c0.126 0.006 0.249 0.018 0.374 0.027 0.136 0.010 0.271 0.018 0.406 0.031 0.157 0.015 0.312 0.036 0.466 0.056 0.101 0.013 0.204 0.024 0.304 0.039 0.169 0.024 0.336 0.055 0.503 0.085 0.088 0.016 0.176 0.030 0.263 0.047 0.17 0.034 0.339 0.072 0.507 0.111 0.085 0.019 0.17 0.038 0.255 0.059 0.164 0.041 0.325 0.086 0.487 0.132 0.091 0.026 0.181 0.050 0.272 0.077 0.15 0.045 0.299 0.094 0.447 0.144 0.102 0.034 0.205 0.067 0.305 0.103 0.133 0.048 0.265 0.099 0.397 0.149 0.116 0.045 0.231 0.089 0.345 0.137s0.228 0.098 0.341 0.148c0.129 0.057 0.258 0.114 0.386 0.174 0.098 0.047 0.194 0.096 0.291 0.144 0.139 0.069 0.279 0.139 0.417 0.213 0.083 0.045 0.166 0.092 0.249 0.139 0.146 0.082 0.292 0.163 0.435 0.25 0.075 0.046 0.149 0.094 0.225 0.14 0.146 0.091 0.292 0.183 0.435 0.279 0.075 0.051 0.148 0.103 0.222 0.155 0.139 0.096 0.276 0.192 0.412 0.293 0.083 0.063 0.165 0.128 0.247 0.192 0.122 0.094 0.245 0.188 0.364 0.287 0.107 0.088 0.21 0.179 0.315 0.27 0.092 0.080 0.186 0.157 0.276 0.24 0.197 0.178 0.389 0.36 0.575 0.547l159.999 159.999c6.25 6.248 6.25 16.379 0.001 22.627z" />
<glyph unicode="&#xe63d;" glyph-name="infinity" d="M654.776 613.636l-296.484-294.286 24.092-24.188 296.484 294.284zM221.98 260.34c-103.476 0-187.66 84.184-187.66 187.66 0 103.478 84.184 187.66 187.66 187.66 50.114 0 95.578-19.858 129.268-51.964l0.016 0.184 1.734-1.516 66.424-66.124h-60.962v-34.12h119.42v119.42h-34.12v-61.392l-66.674 66.374-0.15-0.15c-40.018 39.168-94.68 63.408-154.956 63.408-122.286 0-221.78-99.494-221.78-221.78 0-122.284 99.494-221.78 221.78-221.78 63.058 0 119.92 26.59 160.354 68.99l-24.108 24.124c-34.236-36.236-82.584-58.994-136.246-58.994zM802.020 669.78c-56.478 0-107.924-21.392-147.108-56.278l24.106-24.108c32.972 28.722 75.938 46.266 123.002 46.266 103.476 0 187.66-84.182 187.66-187.66 0-103.476-84.184-187.66-187.66-187.66-49.932 0-95.246 19.726-128.9 51.63l-0.050-0.316-112.988 112.572-24.226-24.040 113.124-112.69 0.2 0.202c39.836-37.986 93.596-61.478 152.84-61.478 122.286 0 221.78 99.496 221.78 221.78 0 122.286-99.494 221.78-221.78 221.78z" />
<glyph unicode="&#xe63e;" glyph-name="briefcase" horiz-adv-x="832" d="M535.42 729.49v85.3h-238.84v-85.3h-290.020v-648.28h818.88v648.28h-290.020zM330.7 780.67h170.6v-51.18h-170.6v51.18zM296.58 695.37h494.74v-272.96h-255.9v68.24h-238.84v-68.24h-255.9v272.96h255.9zM501.3 456.53v-102.36h-170.6v102.36h170.6zM40.68 115.33v272.96h255.9v-68.24h238.84v68.24h255.9v-272.96h-750.64z" />
<glyph unicode="&#xe63f;" glyph-name="padlock-closed" horiz-adv-x="704" d="M573.78 465.060v204.72c0 122.468-99.294 221.78-221.748 221.78-122.502 0-221.812-99.312-221.812-221.78v-204.72h-119.42v-460.62h682.4v460.62h-119.42zM164.34 669.78c0 103.476 84.2 187.66 187.692 187.66 103.46 0 187.628-84.184 187.628-187.66v-204.72h-375.32v204.72zM659.080 38.56h-614.16v392.38h614.16v-392.38z" />
<glyph unicode="&#xe640;" glyph-name="view" d="M512 755.076c-187.094 0-332.936-117.104-511.8-306.962 154.106-162.338 283.422-307.19 511.8-307.19s396.228 183.372 511.8 303.756c-118.304 141.030-286.172 310.396-511.8 310.396zM512 175.044c-202.738 0-325.122 125.742-464.752 273.036 166.136 173.232 298.234 272.876 464.752 272.876 197.14 0 351.212-142.16 465.85-274.908-112.738-117.554-265.378-271.004-465.85-271.004zM512 652.7c-112.89 0-204.72-91.832-204.72-204.704s91.83-204.704 204.72-204.704 204.72 91.83 204.72 204.702-91.83 204.706-204.72 204.706zM512 277.412c-94.064 0-170.6 76.52-170.6 170.582 0 94.064 76.536 170.584 170.6 170.584s170.6-76.52 170.6-170.584c0-94.060-76.536-170.582-170.6-170.582zM512 567.416c-65.842 0-119.42-53.578-119.42-119.42 0-65.84 53.578-119.42 119.42-119.42s119.42 53.58 119.42 119.42c0 65.842-53.578 119.42-119.42 119.42zM512 362.696c-47.032 0-85.3 38.268-85.3 85.3s38.268 85.3 85.3 85.3 85.3-38.268 85.3-85.3c0-47.032-38.268-85.3-85.3-85.3z" />
<glyph unicode="&#xe641;" glyph-name="links" horiz-adv-x="896" d="M497.072 294.636c-41.624 0-83.26 15.828-114.946 47.532l24.124 24.122c50.096-50.096 131.574-50.080 181.688 0l214.892 214.9c50.080 50.082 50.080 131.566 0 181.662l-40.018 40.002c-50.082 50.080-131.582 50.080-181.672 0l-151.648-151.642-24.124 24.124 151.65 151.64c63.374 63.376 166.51 63.408 229.918 0l40.018-40c63.376-63.392 63.376-166.534 0-229.91l-214.894-214.896c-31.688-31.69-73.338-47.534-114.988-47.534zM224.020 21.478c-43.416 0-84.25 16.91-114.954 47.614l-40.018 40.002c-63.376 63.408-63.376 166.534 0 229.91l214.898 214.916c63.376 63.374 166.552 63.374 229.92 0l40.018-40.018-24.124-24.124-40.018 40.018c-50.072 50.082-131.59 50.064-181.67 0l-214.9-214.916c-50.064-50.064-50.064-131.566 0-181.664l40.018-40c24.258-24.258 56.528-37.62 90.83-37.62 34.322 0 66.574 13.362 90.832 37.62l143.010 143.010 24.122-24.124-143.010-143.010c-30.686-30.706-71.52-47.614-114.954-47.614z" />
<glyph unicode="&#xe642;" glyph-name="heart" horiz-adv-x="896" d="M636.342 796.322c112.672 0 204.038-91.348 204.038-204.038 0-57.876-24.14-110.038-62.86-147.192l-329.52-331.17-335.484 337.136c-35.204 36.668-56.896 86.382-56.896 141.226 0 112.69 91.364 204.038 204.038 204.038 84.85 0 157.588-51.83 188.342-125.552 30.754 73.722 103.492 125.552 188.342 125.552zM636.342 830.442c-75.054 0-143.976-34.854-188.342-92.296-44.366 57.442-113.288 92.296-188.342 92.296-131.316 0-238.158-106.842-238.158-238.158 0-61.708 23.574-120.252 66.408-164.85l360.092-361.876 353.712 355.462c46.732 44.85 72.788 105.86 72.788 171.266 0 131.314-106.842 238.156-238.158 238.156v0z" />
<glyph unicode="&#xe643;" glyph-name="lighbulb" horiz-adv-x="704" d="M693.2 601.814c0 188.426-152.74 341.2-341.2 341.2s-341.2-152.774-341.2-341.2c0-110.974 53.146-209.334 135.214-271.594l-0.15-0.084c1.566-1.066 3.182-2.282 4.848-3.582 0.166-0.116 0.316-0.25 0.466-0.366 26.408-20.84 64.342-69.522 64.342-133.782v-239.422h272.96v239.424c0 68.24 39.418 117.206 68.24 136.664l-0.084 0.098c82.852 62.21 136.564 161.056 136.564 272.644zM249.64-12.894v102.942h204.72v-102.942h-204.72zM352 567.712c-18.808 0-34.12 15.294-34.12 34.102 0 18.826 15.312 34.138 34.12 34.138s34.12-15.312 34.12-34.138c0-18.808-15.312-34.102-34.12-34.102zM536.144 356.462c-0.448-0.35-0.898-0.702-1.332-1.066-37.752-26.858-80.452-84.684-80.452-162.988v-68.24h-85.3v411.84c29.372 7.614 51.18 34.068 51.18 65.808 0 37.686-30.554 68.258-68.24 68.258s-68.24-30.572-68.24-68.258c0-31.738 21.808-58.194 51.18-65.808v-411.84h-85.3v68.24c0 73.472-41.65 132.416-77.020 160.322-0.266 0.234-0.598 0.468-0.916 0.734-1.116 0.866-2.214 1.7-3.28 2.5-0.584 0.5-1.166 0.982-1.782 1.432-77.354 58.694-121.72 147.778-121.72 244.422 0 169.318 137.762 307.080 307.080 307.080s307.080-137.762 307.080-307.080c-0.002-97.282-44.802-186.698-122.938-245.356z" />
<glyph unicode="&#xe644;" glyph-name="minus-circle" horiz-adv-x="896" d="M448 890.5c-235.574 0-426.5-190.928-426.5-426.5 0-235.574 190.926-426.5 426.5-426.5s426.5 190.926 426.5 426.5c0 235.572-190.926 426.5-426.5 426.5zM448 71.62c-216.348 0-392.38 176.030-392.38 392.38 0 216.348 176.032 392.38 392.38 392.38s392.38-176.032 392.38-392.38c0-216.35-176.032-392.38-392.38-392.38zM227.354 481.060h442.426v-34.12h-442.426v34.12z" />
<glyph unicode="&#xe645;" glyph-name="keypad" horiz-adv-x="832" d="M125.98 260.332c-56.528 0-102.36-45.814-102.36-102.342s45.832-102.36 102.36-102.36c56.512 0 102.36 45.832 102.36 102.36s-45.848 102.342-102.36 102.342zM125.98 89.748c-37.634 0-68.24 30.606-68.24 68.24 0 37.62 30.606 68.222 68.24 68.222 37.636 0 68.24-30.604 68.24-68.222 0-37.634-30.604-68.24-68.24-68.24zM125.98 840.372c-56.528 0-102.36-45.814-102.36-102.342s45.832-102.36 102.36-102.36c56.512 0 102.36 45.832 102.36 102.36s-45.848 102.342-102.36 102.342zM125.98 669.788c-37.634 0-68.24 30.606-68.24 68.24 0 37.62 30.606 68.222 68.24 68.222 37.636 0 68.24-30.604 68.24-68.222 0-37.634-30.604-68.24-68.24-68.24zM125.98 551.068c-56.528 0-102.36-45.814-102.36-102.342s45.832-102.36 102.36-102.36c56.512 0 102.36 45.832 102.36 102.36s-45.848 102.342-102.36 102.342zM125.98 380.486c-37.634 0-68.24 30.62-68.24 68.24s30.606 68.222 68.24 68.222c37.636 0 68.24-30.604 68.24-68.222s-30.604-68.24-68.24-68.24zM416 260.332c-56.528 0-102.36-45.814-102.36-102.342s45.832-102.36 102.36-102.36c56.512 0 102.36 45.832 102.36 102.36s-45.848 102.342-102.36 102.342zM416 89.748c-37.634 0-68.24 30.606-68.24 68.24 0 37.62 30.606 68.222 68.24 68.222 37.636 0 68.24-30.604 68.24-68.222 0-37.634-30.604-68.24-68.24-68.24zM416 840.372c-56.528 0-102.36-45.814-102.36-102.342s45.832-102.36 102.36-102.36c56.512 0 102.36 45.832 102.36 102.36s-45.848 102.342-102.36 102.342zM416 669.788c-37.634 0-68.24 30.606-68.24 68.24 0 37.62 30.606 68.222 68.24 68.222 37.636 0 68.24-30.604 68.24-68.222 0-37.634-30.604-68.24-68.24-68.24zM416 551.068c-56.528 0-102.36-45.814-102.36-102.342s45.832-102.36 102.36-102.36c56.512 0 102.36 45.832 102.36 102.36s-45.848 102.342-102.36 102.342zM416 380.486c-37.634 0-68.24 30.62-68.24 68.24s30.606 68.222 68.24 68.222c37.636 0 68.24-30.604 68.24-68.222s-30.604-68.24-68.24-68.24zM706.020 260.332c-56.528 0-102.36-45.814-102.36-102.342s45.832-102.36 102.36-102.36c56.512 0 102.36 45.832 102.36 102.36s-45.848 102.342-102.36 102.342zM706.020 89.748c-37.634 0-68.24 30.606-68.24 68.24 0 37.62 30.606 68.222 68.24 68.222 37.636 0 68.24-30.604 68.24-68.222 0-37.634-30.604-68.24-68.24-68.24zM706.020 635.668c56.512 0 102.36 45.832 102.36 102.36s-45.848 102.342-102.36 102.342c-56.528 0-102.36-45.814-102.36-102.342s45.832-102.36 102.36-102.36zM706.020 806.252c37.636 0 68.24-30.604 68.24-68.222 0-37.634-30.604-68.24-68.24-68.24-37.634 0-68.24 30.606-68.24 68.24 0 37.618 30.606 68.222 68.24 68.222zM706.020 551.068c-56.528 0-102.36-45.814-102.36-102.342s45.832-102.36 102.36-102.36c56.512 0 102.36 45.832 102.36 102.36s-45.848 102.342-102.36 102.342zM706.020 380.486c-37.634 0-68.24 30.62-68.24 68.24s30.606 68.222 68.24 68.222c37.636 0 68.24-30.604 68.24-68.222s-30.604-68.24-68.24-68.24z" />
<glyph unicode="&#xe646;" glyph-name="basket-empty" horiz-adv-x="896" d="M574.75 482.754l-24.124 24.122-102.608-102.626-102.628 102.626-24.124-24.122 102.61-102.628-102.944-102.926 24.124-24.124 102.962 102.928 102.94-102.928 24.126 24.124-102.944 102.926zM874.5 737.986h-853v-34.12h25.074l9.046-68.24c0-27.222 16.044-50.512 39.084-61.476l60.176-350.996c6.298-35.72 29.172-65.142 65.142-65.142h455.956c35.952 0 57.778 28.89 65.14 65.142l60.178 350.996c23.042 10.962 39.084 34.254 39.084 61.476l9.046 68.24h25.074v34.12zM707.582 229.452c-2.948-14.162-10.928-37.318-31.604-37.318h-455.956c-23.224 0-30.006 28.288-31.52 36.786l-58.028 338.466h635.052l-57.944-337.934zM806.56 640.092l-0.3-2.232v-2.234c0-18.826-15.312-34.12-34.12-34.12h-648.28c-18.808 0-34.12 15.294-34.12 34.12v2.234l-0.3 2.232-8.446 63.776h734.014l-8.448-63.776z" />
<glyph unicode="&#xe647;" glyph-name="info" horiz-adv-x="896" d="M450.132 603.006c28.254 0 51.18 22.926 51.18 51.18 0 28.288-22.926 51.148-51.18 51.148-28.256 0-51.18-22.858-51.18-51.148 0-28.256 22.924-51.18 51.18-51.18zM484.886 534.766v34.12h-102.36v-34.12h34.12v-290.020h-34.12v-34.12h136.48v34.12h-34.12zM448 874.5c-235.54 0-426.5-190.96-426.5-426.5 0-235.574 190.96-426.5 426.5-426.5s426.5 190.926 426.5 426.5c0 235.54-190.96 426.5-426.5 426.5zM448 55.62c-216.366 0-392.38 176.032-392.38 392.38s176.014 392.38 392.38 392.38c216.366 0 392.38-176.032 392.38-392.38s-176.014-392.38-392.38-392.38z" />
<glyph unicode="&#xe648;" glyph-name="home" horiz-adv-x="896" d="M448 874.5l-170.6-170.6v68.24h-136.48v-204.72l-120.154-120.154 24.124-24.124 403.11 403.108 403.11-403.11 24.124 24.124-427.234 427.236zM175.040 738.020h68.24v-68.24l-68.24-68.24v136.48zM140.92 430.94v-409.44h238.84v238.84h136.48v-238.84h238.84v409.44l-307.080 307.080-307.080-307.080zM720.96 55.62h-170.6v238.84h-204.72v-238.84h-170.6v361.19l272.96 272.96 272.96-272.96v-361.19z" />
<glyph unicode="&#xe649;" glyph-name="help" horiz-adv-x="832" d="M416 857.44c-226.112 0-409.44-183.294-409.44-409.44 0-226.126 183.312-409.422 409.44-409.44 226.146 0.018 409.44 183.328 409.44 409.44-0.016 226.128-183.312 409.44-409.44 409.44zM415.968 260.34c-103.46 0-187.628 84.184-187.628 187.66 0 103.478 84.184 187.66 187.66 187.66h0.034c103.458 0 187.626-84.182 187.626-187.66 0-103.458-84.182-187.642-187.692-187.66zM620.654 533.534l128.9 86.184c26.622-51.498 41.766-109.858 41.766-171.718 0-61.074-14.76-118.736-40.75-169.75l-129.134 86.366c10.464 25.758 16.344 53.864 16.344 83.384 0 30.322-6.114 59.21-17.126 85.534zM732.476 649.338l-127.684-85.366c-18.56 30.156-44.066 55.462-74.386 73.77l85.416 127.716c46.916-29.62 86.8-69.338 116.654-116.12zM586.1 782.386l-86.332-129.082c-25.84 10.564-54.078 16.476-83.734 16.476h-0.034c-29.656 0-57.878-5.912-83.734-16.476l-86.348 129.1c51.096 26.106 108.872 40.916 170.082 40.916s119.004-14.826 170.1-40.934zM216.194 765.494l85.434-127.734c-30.388-18.36-55.944-43.734-74.52-73.956l-127.7 85.4c29.872 46.834 69.822 86.616 116.786 116.29zM82.364 619.568l128.916-86.216c-10.962-26.29-17.060-55.096-17.060-85.352 0-29.438 5.866-57.494 16.276-83.182l-129.166-86.384c-25.922 50.964-40.65 108.574-40.65 169.566 0 61.794 15.112 120.104 41.684 171.568zM98.208 248.678l127.734 85.418c18.444-30.704 44.048-56.512 74.604-75.204l-85.398-127.684c-47.15 29.988-87.168 70.172-116.94 117.47zM244.802 114.182l86.234 128.95c26.172-10.864 54.828-16.912 84.934-16.912 0.018 0 0.032 0 0.032 0 30.122 0 58.812 6.064 85 16.944l86.234-128.966c-51.38-26.472-109.556-41.518-171.232-41.518-61.662 0-119.824 15.046-171.202 41.502zM616.888 131.224l-85.398 127.7c30.47 18.66 56.026 44.384 74.454 75.004l127.734-85.434c-29.756-47.196-69.724-87.316-116.79-117.27z" />
<glyph unicode="&#xe64a;" glyph-name="questionmark" horiz-adv-x="896" d="M448 874.5c-235.558 0-426.5-190.942-426.5-426.5 0-235.542 190.942-426.5 426.5-426.5s426.5 190.958 426.5 426.5c0 235.558-190.942 426.5-426.5 426.5zM448 55.62c-216.366 0-392.38 176.014-392.38 392.38s176.014 392.38 392.38 392.38 392.38-176.014 392.38-392.38c0-216.366-176.014-392.38-392.38-392.38zM446.552 671.596c-86.6 0-134.948-53.512-135.564-138.296h37.618c-1.182 61.508 31.056 106.64 96.146 106.64 46.566 0 85.384-32.838 85.384-80.602 0-31.054-16.728-56.128-38.818-77.036-45.366-42.118-58.094-61.91-60.378-119.602h38.102c2.25 52.312 1.084 51.262 46.75 96.912 30.454 28.656 51.946 57.344 51.946 101.528 0 69.256-54.93 110.456-121.186 110.456zM448 294.442c-18.826 0-34.12-15.278-34.12-34.102 0-18.86 15.294-34.12 34.12-34.12 18.842 0 34.12 15.26 34.12 34.12 0 18.826-15.278 34.102-34.12 34.102z" />
<glyph unicode="&#xe64b;" glyph-name="barchart" horiz-adv-x="896" d="M840.38 499.18v-409.44h-170.6v750.64h-34.12v-750.64h-170.6v511.8h-34.12v-511.8h-170.6v204.72h-34.12v-204.72h-170.45v307.080h-34.12v-307.080h-0.15v-34.12h853v443.56z" />
<glyph unicode="&#xe64c;" glyph-name="graph" horiz-adv-x="832" d="M6.56 857.44v-818.88h818.88v818.88h-818.88zM791.32 823.32v-146.994l-224.728-324.206-154.074 121.754-171.4-239.972-101.192 67.456-99.246-115.69v637.652h750.64zM40.68 72.68v60.592l105.476 122.936 103.526-69.024 169.8 237.708 154.474-122.052 217.364 313.594v-543.754h-750.64z" />
<glyph unicode="&#xe64d;" glyph-name="linegraph" horiz-adv-x="960" d="M863.85 925.68c-47.032 0-85.3-38.252-85.3-85.268 0-29.638 15.228-55.76 38.236-71.054l-161.288-425.102c-4.464 0.734-8.962 1.384-13.61 1.384-20.442 0-38.968-7.53-53.68-19.56l-161.386 133.298c6.364 11.944 10.312 25.356 10.312 39.8 0 47.032-38.268 85.3-85.3 85.3-47.030 0-85.3-38.27-85.3-85.3 0-25.408 11.396-48.016 29.088-63.66l-171.966-299.53c-8.678 2.982-17.808 4.948-27.488 4.948-47.048 0-85.318-38.252-85.318-85.266 0-47.066 38.268-85.35 85.318-85.35 47.032 0 85.282 38.284 85.282 85.35 0 25.074-11.078 47.414-28.37 63.042l172.15 299.85c8.43-2.8 17.26-4.682 26.606-4.682 20.244 0 38.602 7.38 53.246 19.192l161.554-133.432c-6.198-11.83-10.046-25.058-10.046-39.302 0-47.032 38.27-85.3 85.3-85.3 47.032 0 85.3 38.268 85.3 85.3 0 30.272-15.96 56.728-39.784 71.888l161.036 424.402c5.016-0.916 10.13-1.55 15.41-1.55 47.032 0 85.3 38.284 85.3 85.332-0.002 47.018-38.27 85.27-85.302 85.27zM96.168 4.44c-28.222 0-51.198 22.974-51.198 51.23 0 28.206 22.974 51.146 51.198 51.146 28.206 0 51.162-22.94 51.162-51.146 0-28.256-22.958-51.23-51.162-51.23zM351.834 448c-28.222 0-51.18 22.958-51.18 51.18s22.958 51.18 51.18 51.18 51.18-22.958 51.18-51.18-22.958-51.18-51.18-51.18zM641.888 209.16c-28.222 0-51.18 22.958-51.18 51.18s22.958 51.18 51.18 51.18 51.18-22.958 51.18-51.18c0-28.222-22.958-51.18-51.18-51.18zM863.85 789.2c-28.222 0-51.18 22.972-51.18 51.212 0 28.206 22.958 51.148 51.18 51.148s51.18-22.942 51.18-51.148c0-28.24-22.958-51.212-51.18-51.212z" />
<glyph unicode="&#xe64e;" glyph-name="piechart" horiz-adv-x="896" d="M874.508 448c0 229.794-181.83 417.104-409.456 426.066v0.434h-34.12v-0.434c-227.628-8.962-409.44-196.272-409.44-426.066 0-235.574 190.958-426.5 426.5-426.5 82.742 0 159.912 23.64 225.328 64.406l0.234-0.332 12.694 8.63c0.168 0.098 0.3 0.182 0.434 0.284l15.094 10.246-0.232 0.332c104.924 77.686 172.964 202.338 172.964 342.934zM806.968 606.188l-341.916-133.232v366.99c152.782-6.582 283.14-100.91 341.916-233.758zM447.992 55.62c-216.366 0-392.38 176.014-392.38 392.38 0 210.632 166.85 382.966 375.32 391.946v-397.196l223.13-328.486c-59.952-37.136-130.524-58.644-206.070-58.644zM682.284 133.422l-208.152 306.464 345.23 134.514c13.56-39.684 21.024-82.168 21.024-126.4 0.002-128.618-62.206-242.972-158.102-314.578z" />
<glyph unicode="&#xe64f;" glyph-name="global" horiz-adv-x="896" d="M448 874.5c-0.116 0-0.234 0-0.366 0-0.050 0-0.098 0-0.166 0-0.168 0-0.334-0.034-0.5-0.034-235.092-0.532-425.468-191.258-425.468-426.466 0-235.142 190.376-425.902 425.468-426.468 0.166 0 0.332-0.032 0.5-0.032 0.066 0 0.116 0 0.166 0 0.134 0 0.25 0 0.366 0 235.508 0 426.5 190.992 426.5 426.5 0 235.54-190.992 426.5-426.5 426.5zM465.060 619.266c45.216 1.234 89.216 7.198 131.582 17.528 12.778-50.28 20.692-108.226 21.94-171.732h-153.522v154.204zM465.060 653.386v184.296c45.998-12.728 92.582-74.038 122.286-168.068-39.402-9.498-80.286-15.030-122.286-16.228zM430.94 838.080v-184.694c-42.35 1.2-83.566 6.83-123.268 16.494 29.938 94.594 76.968 156.138 123.268 168.2zM430.94 619.3v-154.24h-154.59c1.248 63.608 9.196 121.62 21.976 171.932 42.7-10.428 87.032-16.494 132.614-17.692zM242.014 465.060h-185.96c3.766 87.698 36.436 168.066 88.748 231.708 37.986-20.926 78.286-38.052 120.504-50.848-13.78-54.41-22.044-115.752-23.292-180.86zM242.014 430.94c1.248-65.076 9.512-126.418 23.29-180.83-42.2-12.828-82.518-29.954-120.504-50.88-52.312 63.642-84.982 144.010-88.746 231.71h185.96zM276.35 430.94h154.59v-154.040c-45.582-1.202-89.932-7.298-132.632-17.762-12.778 50.282-20.708 108.258-21.958 171.802zM430.94 242.812v-184.894c-46.332 12.096-93.396 73.704-123.318 168.402 39.718 9.662 80.952 15.294 123.318 16.492zM465.060 58.318v184.494c42.018-1.2 82.902-6.764 122.318-16.26-29.688-94.096-76.302-155.504-122.318-168.234zM465.060 276.9v154.040h153.522c-1.248-63.442-9.162-121.32-21.892-171.568-42.398 10.33-86.398 16.328-131.63 17.528zM652.92 430.94h187.028c-3.766-87.7-36.418-168.036-88.732-231.676-38.302 21.058-78.934 38.318-121.518 51.18 13.744 54.344 21.972 115.554 23.222 180.496zM652.92 465.060c-1.248 65.042-9.496 126.284-23.258 180.662 42.552 12.862 83.184 30.088 121.454 51.146 52.362-63.64 85.050-144.042 88.832-231.808h-187.028zM727.608 722.926c-33.938-18.060-69.774-32.988-107.192-44.316-19.944 64.176-47.948 116.556-81.052 150.942 72.638-17.428 137.496-55.014 188.244-106.626zM355.286 829.218c-32.936-34.322-60.808-86.466-80.686-150.308-37.050 11.296-72.572 26.090-106.208 44.016 50.414 51.278 114.79 88.764 186.894 106.292zM168.276 173.206c33.672 17.96 69.208 32.756 106.292 44.050 19.874-63.908 47.748-116.122 80.718-150.474-72.156 17.558-136.562 55.078-187.010 106.424zM539.348 66.482c33.154 34.386 61.16 86.8 81.118 151.074 37.434-11.362 73.288-26.256 107.24-44.382-50.746-51.648-115.654-89.3-188.358-106.692z" />
<glyph unicode="&#xe650;" glyph-name="gleam" horiz-adv-x="640" d="M407.232 839.248l-44.016-357.128h194.822l-325.27-425.368 44.018 357.126h-194.824l325.27 425.37zM456.48 959.8l-443.56-580.040h225.278l-54.678-443.56 443.56 580.040h-225.278l54.678 443.56z" />
<glyph unicode="&#xe651;" glyph-name="glasses" d="M998.21 473.572h-10.214c-12.644 105.694-102.476 187.66-211.566 187.66-101.36 0-186.028-70.772-207.702-165.552l-48.832 25.508c-4.93 2.564-10.862 2.564-15.792 0l-48.83-25.508c-21.674 94.798-106.342 165.57-207.702 165.57-109.108 0-198.906-81.968-211.568-187.66h-10.212c-14.13 0-25.59-11.462-25.59-25.608 0-14.11 11.46-25.572 25.59-25.572h10.212c12.662-105.692 102.46-187.66 211.568-187.66 117.77 0 213.25 95.462 213.25 213.25 0 3.964-0.384 7.848-0.6 11.762l51.778 27.056 51.778-27.056c-0.216-3.916-0.598-7.798-0.598-11.762 0-117.77 95.478-213.25 213.25-213.25 109.090 0 198.888 81.968 211.566 187.642h10.214c14.128 0 25.59 11.462 25.59 25.59 0 14.13-11.462 25.59-25.59 25.59zM247.57 268.87c-98.78 0-179.13 80.352-179.13 179.13 0 98.78 80.35 179.13 179.13 179.13 98.778 0 179.13-80.35 179.13-179.13 0-98.778-80.352-179.13-179.13-179.13zM776.43 268.87c-98.78 0-179.13 80.352-179.13 179.13 0 98.762 80.35 179.112 179.13 179.112 98.778 0 179.13-80.35 179.13-179.112 0-98.778-80.352-179.13-179.13-179.13z" />
<glyph unicode="&#xe652;" glyph-name="gift" horiz-adv-x="832" d="M625.4 652.736c28.44 25.024 46.5 61.576 46.5 102.328 0 75.254-61.226 136.48-136.48 136.48-51.346 0-96.128-28.54-119.42-70.556-23.29 42.018-68.074 70.556-119.42 70.556-75.254 0-136.48-61.226-136.48-136.48 0-40.752 18.060-77.304 46.498-102.328h-200.038v-648.28h818.88v648.28h-200.040zM791.32 618.616v-272.96h-358.26v272.96h21.792l82.818-144.944 29.622 16.926-73.156 128.016h297.184zM416 686.59l19.342-33.854h-38.686l19.344 33.854zM535.42 857.424c56.444 0 102.36-45.916 102.36-102.36 0-56.428-45.916-102.328-102.36-102.328-56.446 0-102.36 45.9-102.36 102.328 0 56.444 45.914 102.36 102.36 102.36zM194.22 755.064c0 56.444 45.914 102.36 102.36 102.36 56.444 0 102.36-45.916 102.36-102.36 0-56.428-45.916-102.328-102.36-102.328-56.446 0-102.36 45.9-102.36 102.328zM337.864 618.616l-73.154-128.016 29.622-16.926 82.818 144.944h21.792v-272.96h-358.262v272.96h297.184zM40.68 311.536h358.26v-272.96h-358.26v272.96zM433.060 38.576v272.96h358.26v-272.96h-358.26z" />
<glyph unicode="&#xe653;" glyph-name="torch" horiz-adv-x="512" d="M17.16 959.8v-102.36l119.42-204.72v-716.52h238.84v716.52l119.42 204.72v102.36h-477.68zM51.28 925.68h409.44v-59.010l-5.38-9.23h-398.68l-5.38 9.23v59.010zM170.7-29.68v68.39h170.6v-68.39h-170.6zM345.948 669.914l-4.648-7.964v-589.12h-170.6v589.12l-94.13 161.37h358.86l-89.482-153.406zM256 482.12c-28.256 0-51.18-22.924-51.18-51.18v-68.306c0-28.24 22.924-51.18 51.18-51.18 28.254 0 51.18 22.94 51.18 51.18v68.306c0 28.256-22.926 51.18-51.18 51.18zM273.060 362.634c0-9.412-7.646-17.060-17.060-17.060s-17.060 7.648-17.060 17.060v68.306c0 9.414 7.646 17.060 17.060 17.060s17.060-7.646 17.060-17.060v-68.306z" />
<glyph unicode="&#xe654;" glyph-name="flagline" horiz-adv-x="640" d="M627.062 812.744l-22.692-7.912c-0.598-0.202-62.060-21.258-159.236-21.258-49.514 0-96.664 10.044-142.244 19.758-46.1 9.828-93.78 19.99-144.262 19.99-100.66 0-134.798-21.608-138.362-24.074l-7.348-5.080v-721.494h34.12v326.266c13.578 5.298 46.866 14.744 111.59 14.744 46.882 0 90.732-9.346 137.148-19.242 47.314-10.096 96.246-20.524 149.358-20.524 103.458 0 167.85 22.224 170.548 23.174l11.396 4.014-0.016 411.638zM592.96 425.896c-22.074-6.014-74.886-17.858-147.824-17.858-49.514 0-96.664 10.044-142.244 19.776-46.1 9.828-93.78 19.99-144.262 19.99-55.26 0-90.482-6.514-111.59-12.812v339.5c13.662 5.298 47.032 14.71 111.59 14.71 46.882 0 90.732-9.346 137.148-19.242 47.314-10.080 96.246-20.508 149.358-20.508 68.722 0 120.204 9.812 147.824 16.676v-340.232z" />
<glyph unicode="&#xe655;" glyph-name="funnel" horiz-adv-x="896" d="M550.36 55.62h-204.904v332.722l-341.15 452.038h887.386l-341.332-452.038v-332.722zM379.576 89.74h136.664v310.030l306.946 406.49h-750.372l306.762-406.49v-310.030z" />
<glyph unicode="&#xe656;" glyph-name="paper" horiz-adv-x="640" d="M618.416 567.554l-289.886 289.886h-307.080v-818.88h597.1v528.942l-0.134 0.052zM328.53 809.19l224.712-224.71h-224.712v224.71zM55.57 72.68v750.64h238.84v-272.96h290.020v-477.68h-528.86z" />
<glyph unicode="&#xe657;" glyph-name="fullscreen" horiz-adv-x="832" d="M262.46 823.32v34.12h-255.9v-255.9h34.12v197.658l242.822-242.822 24.124 24.122-242.822 242.822zM569.54 857.44v-34.12h197.656l-242.822-242.822 24.124-24.122 242.822 242.822v-197.658h34.12v255.9zM283.502 339.626l-242.822-242.822v197.656h-34.12v-255.9h255.9v34.12h-197.656l242.822 242.822zM791.32 96.804l-242.822 242.822-24.124-24.124 242.822-242.822h-197.656v-34.12h255.9v255.9h-34.12z" />
<glyph unicode="&#xe658;" glyph-name="larger" horiz-adv-x="832" d="M6.56 38.56h341.2v341.234h-341.2v-341.234zM40.68 345.674h272.96v-272.994h-272.96v272.994zM654.84 448h34.12v272.96h-272.96v-34.12h216.382l-252.152-252.15 24.124-24.124 250.486 250.484zM6.56 857.44v-409.44h34.12v375.32h750.64v-750.64h-375.32v-34.12h409.44v818.88z" />
<glyph unicode="&#xe659;" glyph-name="settings-sliders" horiz-adv-x="832" d="M808.38 772.156c0 47.116-38.2 85.284-85.3 85.284-47.114 0-85.3-38.168-85.3-85.284 0-41.25 29.306-75.67 68.24-83.584v-581.772h34.12v581.772c38.934 7.914 68.24 42.334 68.24 83.584zM723.080 720.976c-28.222 0-51.18 22.958-51.18 51.18 0 28.208 22.958 51.164 51.18 51.164s51.18-22.958 51.18-51.164c0-28.224-22.958-51.18-51.18-51.18zM125.98 207.444v581.756h-34.12v-581.756c-38.934-7.914-68.24-42.318-68.24-83.584 0-47.1 38.202-85.3 85.3-85.3 47.1 0 85.3 38.2 85.3 85.3 0 41.266-29.306 75.67-68.24 83.584zM108.92 72.68c-28.222 0-51.18 22.958-51.18 51.18s22.958 51.18 51.18 51.18 51.18-22.958 51.18-51.18-22.958-51.18-51.18-51.18zM433.060 531.584v257.616h-34.12v-257.616c-38.934-7.914-68.24-42.334-68.24-83.584 0-41.252 29.306-75.672 68.24-83.586v-257.614h34.12v257.614c38.934 7.914 68.24 42.334 68.24 83.586 0 41.25-29.306 75.67-68.24 83.584zM416 396.82c-28.222 0-51.18 22.958-51.18 51.18s22.958 51.18 51.18 51.18 51.18-22.958 51.18-51.18-22.958-51.18-51.18-51.18z" />
<glyph unicode="&#xe65a;" glyph-name="drop" horiz-adv-x="704" d="M634.856 452.724c-0.682 2.648-2 5.048-3.766 7.048l-279.090 465.466-39.868-66.474h0.050l-240.806-401.544c-0.598-1-1.082-2.032-1.45-3.098-27.522-48.648-42.066-103.626-42.066-159.22 0-178.73 145.41-324.14 324.158-324.14 178.73 0 324.122 145.41 324.122 324.14 0 55.062-14.26 109.506-41.284 157.822zM352.018 4.882c-159.92 0-290.038 130.1-290.038 290.020 0 50.68 13.528 100.826 39.118 144.992 0.484 0.818 0.866 1.666 1.2 2.534l249.702 416.404 249.67-416.354c0.334-0.884 0.748-1.75 1.234-2.582 25.59-44.166 39.116-94.312 39.116-144.992 0-159.922-130.098-290.022-290.002-290.022z" />
<glyph unicode="&#xe65b;" glyph-name="inbox" horiz-adv-x="896" d="M688.172 738.020h-479.012l-187.66-204.72v-375.32h853v375.32l-186.328 204.72zM224.172 703.9h448.924l155.274-170.6h-260.95c0-63.892-55.528-115.504-119.42-115.504s-119.42 51.614-119.42 115.504h-260.78l156.372 170.6zM840.38 192.1h-784.76v307.080h243.056c16.326-65.308 78.102-115.504 149.324-115.504s132.998 50.198 149.324 115.504h243.056v-307.080z" />
<glyph unicode="&#xe65c;" glyph-name="downlaod" horiz-adv-x="704" d="M202.724 533.932l-24.124-24.124 173.4-173.4 173.4 173.4-24.124 24.124-132.216-132.216v540.072h-34.12v-540.072zM437.3 771.188v-34.12h221.78v-580.040h-614.16v580.040h221.78v34.12h-255.9v-648.28h682.4v648.28z" />
<glyph unicode="&#xe65d;" glyph-name="slideshow" horiz-adv-x="960" d="M940.62 831.85h-921.24v-34.12h68.24v-614.16h375.32v-85.3h-272.96v-34.12h580.040v34.12h-272.96v85.3h375.32v614.16h68.24v34.12zM838.26 217.69h-716.52v580.040h716.52v-580.040zM428.82 695.37h-204.72v-204.72h204.72v204.72zM394.7 524.77h-136.48v136.48h136.48v-136.48zM497.060 524.77h238.84v-34.12h-238.84v34.12zM497.060 695.37h238.84v-34.12h-238.84v34.12zM497.060 610.070h238.84v-34.12h-238.84v34.12zM224.1 422.41h511.8v-34.12h-511.8v34.12zM224.1 320.050h511.8v-34.12h-511.8v34.12z" />
<glyph unicode="&#xe65e;" glyph-name="presentation" horiz-adv-x="896" d="M891.56 233.65v614.16h-887.12v-614.16h426.5v-65.992l-161.802-89.614 16.526-29.854 162.336 89.932 162.338-89.932 16.526 29.854-161.804 89.614v65.992h426.5zM38.56 813.69h818.88v-545.92h-818.88v545.92zM425.41 466.342l-101.178 141.112-67.706-131.282-106.458 214.816-77.72-286.87 32.92-8.932 54.194 200.006 96.462-194.624 73.072 141.68 109.242-152.342 94.346 316.544-32.688 9.762zM686.858 643.090c-56.444 0-102.378-45.916-102.378-102.36s45.932-102.36 102.378-102.36c56.428 0 102.342 45.916 102.342 102.36s-45.916 102.36-102.342 102.36zM686.858 472.49c-37.636 0-68.258 30.604-68.258 68.24s30.622 68.24 68.258 68.24c37.62 0 68.222-30.604 68.222-68.24s-30.604-68.24-68.222-68.24z" />
<glyph unicode="&#xe65f;" glyph-name="disk" d="M754.62 864h-658.669v-832h832v658.669l-173.331 173.331zM685.288 829.331v-242.669h-346.669v242.669h346.669zM893.288 66.669h-762.669v762.669h173.331v-277.331h416v277.331h20.314l153.023-153.023v-609.645zM581.968 760h34.669v-104h-34.669v104zM338.62 309.331h346.669v-34.669h-346.669v34.669zM338.62 205.331h346.669v-34.669h-346.669v34.669z" />
<glyph unicode="&#xe660;" glyph-name="calendar" d="M96 864v-832h832v832h-832zM893.331 829.331v-156h-762.669v156h762.669zM130.669 66.669v572h762.669v-572h-762.669zM355.986 777.331h52.014v-52h-52.014v52zM616 777.331h52v-52h-52v52zM393.255 515.332c-6.211-42.185-26.273-42.913-66.642-44.368l-6.262-0.239v-29.401h68.402v-192.277h36.289v271.836h-30.979l-0.814-5.551zM597.891 433.631c-16.113 0-32.669-5.265-45.789-14.082l12.338 63.558h114.277v34.449h-141.323l-27.573-147.216h31.367l1.912 2.996c10.968 17.079 30.956 27.693 52.202 27.693 34.582 0 59.683-25.576 59.683-60.801 0-31.858-19.993-64.12-58.197-64.12-32.652 0-56.128 22.035-57.094 53.606l-0.202 6.299h-36.257l0.152-6.652c1.166-51.36 37.948-85.854 91.541-85.854 54.033 0 96.348 41.353 96.348 94.133-0.003 57.417-37.53 95.994-93.388 95.994z" />
<glyph unicode="&#xe661;" glyph-name="trophy" d="M860.199 826.416c-1.107 0-2.128-0.267-3.224-0.324h-87.615v0.324l-602.361-0.324c-1.096 0.059-2.117 0.324-3.224 0.324-33.444 0-60.558-27.116-60.558-60.558 0-16.825 6.873-32.024 17.947-42.992l133.45-133.45v9.892c0-137.024 107.174-248.739 242.234-256.604v-242.838h-121.117v-30.28h272.514v30.28h-121.117v242.838c135.059 7.864 242.234 119.578 242.234 256.604v-9.892l133.448 133.45c11.076 10.97 17.949 26.17 17.949 42.992 0 33.444-27.116 60.558-60.558 60.558zM254.614 632.232l-112.141 112.142c-5.783 5.735-8.976 13.365-8.976 21.482 0 16.278 12.906 29.599 29.038 30.249 0.933-0.119 1.861-0.205 2.825-0.251l0.829-0.044h88.427v-163.578zM739.082 599.307c0-125.227-101.882-227.094-227.094-227.094s-227.094 101.867-227.094 227.094v196.83h454.188v-196.83zM881.502 744.377l-112.141-112.142v163.58l89.256 0.044c0.961 0.046 1.892 0.132 2.825 0.251 16.132-0.65 29.038-13.969 29.038-30.249-0.002-8.119-3.195-15.746-8.976-21.484z" />
<glyph unicode="&#xe662;" glyph-name="establishment" d="M863.846 574.534h136.246l-494.622 292.852-481.562-292.852h123.418v-511.8h-68.24v-34.12h853v34.12h-68.24v511.8zM145.694 608.654l360.008 218.948 369.806-218.948h-729.814zM181.446 62.734v511.8h102.36v-511.8h-102.36zM317.926 62.734v511.8h102.36v-511.8h-102.36zM454.406 62.734v511.8h102.36v-511.8h-102.36zM590.886 62.734v511.8h102.36v-511.8h-102.36zM727.366 62.734v511.8h102.36v-511.8h-102.36z" />
<glyph unicode="&#xe664;" glyph-name="creditcard" horiz-adv-x="960" d="M889.44 755.080h-818.88c-28.254 0-51.18-22.926-51.18-51.18v-511.8c0-28.288 22.926-51.18 51.18-51.18h818.88c28.256 0 51.18 22.892 51.18 51.18v511.8c0 28.254-22.924 51.18-51.18 51.18zM53.5 618.6h853v-68.24h-853v68.24zM906.5 192.1c0-9.414-7.646-17.060-17.060-17.060h-818.88c-9.412 0-17.060 7.646-17.060 17.060v324.14h853v-324.14zM53.5 652.72v51.18c0 9.412 7.648 17.060 17.060 17.060h818.88c9.414 0 17.060-7.648 17.060-17.060v-51.18h-853zM121.74 277.4h341.2v-34.12h-341.2v34.12zM121.74 379.76h204.72v-34.12h-204.72v34.12zM735.4 243.28h69.274c18.542 0 33.586 14.794 33.586 33.086v2.048c0 18.276-15.044 33.104-33.586 33.104h-69.274c-18.574 0-33.62-14.828-33.62-33.104v-2.048c0-18.292 15.046-33.086 33.62-33.086z" />
<glyph unicode="&#xe665;" glyph-name="2papers" horiz-adv-x="768" d="M763.046 723.67l-172.294 172.294h-379.046v-137.836h-206.752v-758.094h551.34v137.836h206.752v585.8zM590.752 847.236l123.568-123.566h-123.568v123.566zM39.412 34.494v689.176h310.13v-172.294h172.294v-516.882h-482.424zM384 709.4l123.568-123.566h-123.568v123.566zM556.294 172.33v413.506l-172.294 172.294h-137.836v103.376h310.13v-172.294h172.294v-516.882h-172.294z" />
<glyph unicode="&#xe666;" glyph-name="setting" horiz-adv-x="896" d="M499.18 840.38v-83.152l25.59-6.614c28.956-7.48 56.578-19.108 82.102-34.602l22.892-13.894 59.51 59.508 72.372-72.37-60.426-60.41 13.012-22.658c14.428-25.122 25.224-52.33 32.054-80.85l6.28-26.156h87.818v-102.36h-89.782l-6.914-25.040c-7.464-27.006-18.658-52.914-33.286-77.004l-13.896-22.908 65.142-65.124-72.372-72.37-66.058 66.042-22.64-13.012c-23.492-13.512-48.998-23.842-75.788-30.756l-25.608-6.598v-94.43h-102.36v94.43l-25.608 6.598c-26.79 6.914-52.296 17.244-75.788 30.756l-22.658 13.012-66.040-66.058-72.372 72.388 65.142 65.124-13.896 22.908c-14.628 24.090-25.822 49.998-33.286 77.004l-6.914 25.040h-89.782v102.36h87.818l6.28 26.156c6.83 28.52 17.626 55.728 32.054 80.85l13.012 22.658-60.426 60.41 72.372 72.37 59.51-59.508 22.892 13.894c25.524 15.494 53.146 27.124 82.102 34.602l25.59 6.614v83.15h102.356zM448 294.426c84.668 0 153.54 68.89 153.54 153.574 0 84.666-68.872 153.556-153.54 153.556s-153.54-68.89-153.54-153.556c0-84.684 68.872-153.574 153.54-153.574zM533.3 874.5h-170.6v-90.848c-32.588-8.414-63.21-21.442-91.264-38.468l-64.708 64.706-120.62-120.634 66.076-66.076c-15.944-27.754-27.99-57.928-35.654-89.88h-95.030v-170.6h97.928c8.432-30.506 20.958-59.194 37.004-85.634l-70.324-70.322 120.62-120.652 71.704 71.722c26.124-15.012 54.396-26.506 84.268-34.204v-102.11h170.6v102.11c29.872 7.698 58.144 19.192 84.268 34.204l71.706-71.704 120.62 120.634-70.324 70.322c16.044 26.44 28.572 55.13 37.004 85.634h97.928v170.6h-95.030c-7.664 31.954-19.71 62.126-35.654 89.88l66.076 66.076-120.62 120.634-64.708-64.706c-28.056 17.026-58.676 30.054-91.264 38.468v90.848h-0.002zM448 328.546c-65.974 0-119.42 53.48-119.42 119.454 0 65.972 53.446 119.436 119.42 119.436s119.42-53.462 119.42-119.436c0-65.974-53.446-119.454-119.42-119.454v0z" />
<glyph unicode="&#xe667;" glyph-name="compass" horiz-adv-x="832" d="M479.742 784.236c13.262 15.026 21.558 34.554 21.558 56.162 0 47.098-38.168 85.282-85.3 85.282-47.114 0-85.3-38.186-85.3-85.282 0-21.608 8.296-41.136 21.558-56.162-195.84-30.622-345.698-200.022-345.698-404.476 0-226.146 183.328-409.44 409.44-409.44s409.44 183.294 409.44 409.44c0 204.436-149.858 373.854-345.698 404.476zM416 891.56c28.222 0 51.18-22.958 51.18-51.162s-22.958-51.164-51.18-51.164-51.18 22.958-51.18 51.162 22.958 51.164 51.18 51.164zM416 4.44c-206.954 0-375.32 168.366-375.32 375.32s168.366 375.32 375.32 375.32 375.32-168.366 375.32-375.32-168.366-375.32-375.32-375.32zM211.364 174.774l277.608 131.482 131.5 277.624-278.526-130.598-130.582-278.508zM359.906 411.198l87.084-87.082-164.42-77.87 77.336 164.952zM471.112 348.238l-87.082 87.082 164.968 77.354-77.886-164.436z" />
<glyph unicode="&#xe668;" glyph-name="folder" horiz-adv-x="832" d="M757.2 712.43h-443.56v17.060c0 37.686-30.554 68.24-68.24 68.24h-170.6c-37.686 0-68.24-30.554-68.24-68.24v-562.98c0-37.684 30.554-68.24 68.24-68.24h682.4c37.686 0 68.24 30.556 68.24 68.24v477.68c0 37.686-30.554 68.24-68.24 68.24zM40.68 729.49c0 18.81 15.312 34.12 34.12 34.12h170.6c18.808 0 34.12-15.31 34.12-34.12v-51.18h477.68c18.808 0 34.12-15.31 34.12-34.12v-34.12h-750.64v119.42zM757.2 132.39h-682.4c-18.808 0-34.12 15.312-34.12 34.12v409.44h750.64v-409.44c0-18.808-15.312-34.12-34.12-34.12z" />
<glyph unicode="&#xe669;" glyph-name="food" horiz-adv-x="832" d="M671.034 328.58h137.346v272.96h-784.76v-255.9c0-179.014 145.126-324.14 324.14-324.14 173.25 0 314.362 136.046 323.274 307.080zM671.9 567.42h102.36v-204.72h-102.36v204.72zM347.76 55.62c-159.92 0-290.020 130.098-290.020 290.020v221.78h580.040v-221.78c0-159.922-130.1-290.020-290.020-290.020zM23.62-12.62h648.28v34.12h-648.28zM194.22 857.44h34.12v-153.54h-34.12v153.54zM467.18 857.44h34.12v-153.54h-34.12v153.54zM330.7 908.62h34.12v-204.72h-34.12v204.72z" />
<glyph unicode="&#xe66a;" glyph-name="cloud" d="M572.602 737.77c127 0 230.31-103.294 230.31-230.31 0-0.7-0.084-1.434-0.134-2.132-0.098-1.7-0.216-3.398-0.25-5.132l-0.866-34.82 34.87-0.134c84.4-0.234 153.056-69.106 153.056-153.508 0-84.168-68.524-153.040-152.74-153.474l-7.446-0.032h-624.54c-93.98 0.098-170.45 76.602-170.45 170.566 0 72.806 46.348 137.612 115.306 161.272l19.192 6.562 3.382 19.992c8.362 49.348 50.746 85.166 100.776 85.166 15.944 0 31.354-3.698 45.8-10.962l31.106-15.626 15.010 31.386c38.134 79.706 119.634 131.186 207.618 131.186zM572.602 771.89c-105.226 0-195.824-61.608-238.392-150.574-18.41 9.264-39.134 14.594-61.144 14.594-67.538 0-123.484-49.148-134.414-113.588-80.432-27.59-138.36-103.694-138.36-193.526 0-112.988 91.58-204.586 204.536-204.686l632.204 0.032c103.192 0.534 186.676 84.3 186.676 187.594 0 103.46-83.682 187.328-187.076 187.628 0.066 2.732 0.4 5.364 0.4 8.096 0 146.042-118.388 264.43-264.43 264.43v0z" />
<glyph unicode="&#xe66b;" glyph-name="time" horiz-adv-x="832" d="M416 857.44c-226.112 0-409.44-183.328-409.44-409.44 0-226.114 183.328-409.44 409.44-409.44s409.44 183.326 409.44 409.44c0 226.112-183.328 409.44-409.44 409.44zM416 72.68c-206.954 0-375.32 168.366-375.32 375.32 0 206.952 168.366 375.32 375.32 375.32s375.32-168.368 375.32-375.32c0-206.954-168.366-375.32-375.32-375.32zM416 413.88h-204.72v-34.12h238.84v339.8h-34.12z" />
<glyph unicode="&#xe66c;" glyph-name="tick-circle" horiz-adv-x="896" d="M448 874.5c-235.54 0-426.5-190.942-426.5-426.5s190.96-426.5 426.5-426.5c235.542 0 426.5 190.942 426.5 426.5s-190.958 426.5-426.5 426.5zM448 55.62c-216.366 0-392.38 176.030-392.38 392.38 0 216.348 176.014 392.38 392.38 392.38s392.38-176.032 392.38-392.38c0-216.35-176.014-392.38-392.38-392.38zM661.35 600.274l-273.876-265.58-95.946 95.928c-9.998 9.998-26.19 9.998-36.186 0-9.998-9.996-9.998-26.188 0-36.186l113.754-113.754c4.998-4.998 11.546-7.498 18.094-7.498 6.414 0 12.844 2.398 17.808 7.214l291.97 283.122c10.146 9.846 10.396 26.038 0.566 36.186-9.876 10.164-26.054 10.396-36.184 0.568z" />
<glyph unicode="&#xe66d;" glyph-name="comments" horiz-adv-x="896" d="M618.6 618.592v255.9h-597.1v-460.62h255.9v-255.9h354.030l136.48-136.462h21.29v136.462h85.3v460.62h-255.9zM55.62 447.992v392.38h528.86v-221.78h-307.080v-170.6h-221.78zM840.38 192.092h-85.3v-109.508l-109.524 109.508h-334.036v392.38h528.86v-392.38z" />
<glyph unicode="&#xe66e;" glyph-name="shopping-trolley" horiz-adv-x="960" d="M947.892 652.72h-717.038l-57.892 238.84h-160.854v-34.12h134.030l166.352-686.182c-35.47-10.33-61.542-42.702-61.542-81.518 0-47.1 38.184-85.3 85.3-85.3 47.114 0 85.3 38.2 85.3 85.3 0 19.292-6.648 36.9-17.444 51.18h239.588c-10.796-14.28-17.426-31.888-17.426-51.18 0-47.1 38.168-85.3 85.282-85.3 47.132 0 85.318 38.2 85.318 85.3 0 47.13-38.186 85.282-85.3 85.3v0h-364.906l-16.544 68.24h478.978l138.798 409.44zM387.428 89.74c0-28.222-22.96-51.18-51.18-51.18-28.222 0-51.18 22.958-51.18 51.18 0 28.22 22.958 51.18 51.18 51.18 28.22 0 51.18-22.96 51.18-51.18zM762.748 89.74c0-28.222-22.96-51.18-51.198-51.18-28.206 0-51.162 22.958-51.162 51.18 0 28.22 22.958 51.18 51.162 51.18 28.238 0 51.198-22.96 51.198-51.18zM321.852 277.4l-82.718 341.2h661.174l-115.668-341.2h-462.788z" />
<glyph unicode="&#xe66f;" glyph-name="uniE66F" horiz-adv-x="896" d="M806.252 669.78h-141.112l-82.034 82.234c-0.098 0.098-0.182 0.166-0.266 0.266l-0.15 0.134c-12.328 12.194-29.254 19.726-47.964 19.726h-170.6c-19.826 0-37.502-8.564-49.98-22.058l-0.066 0.2-80.336-80.502h-144.012c-37.686 0-68.24-30.556-68.24-68.24v-409.44c0-37.686 30.554-68.24 68.24-68.24h716.52c37.702 0 68.258 30.554 68.258 68.24v409.44c-0.002 37.684-30.556 68.24-68.258 68.24zM840.388 192.1c0-18.794-15.328-34.12-34.138-34.12h-716.518c-18.808 0-34.12 15.326-34.12 34.12v409.44c0 18.826 15.312 34.12 34.12 34.12h158.154l51.312 51.412 0.834-2.5 39.168 42.352c6.63 7.164 15.476 11.096 24.922 11.096h170.6c9.012 0 17.542-3.5 24.224-10.096l92.030-92.264h155.274c18.808 0 34.138-15.294 34.138-34.12v-409.44zM447.992 635.66c-122.486 0-221.78-99.262-221.78-221.748s99.294-221.812 221.78-221.812 221.78 99.326 221.78 221.812-99.294 221.748-221.78 221.748zM447.992 226.22c-103.476 0-187.66 84.2-187.66 187.692 0 103.46 84.184 187.628 187.66 187.628s187.66-84.168 187.66-187.628c0-103.492-84.184-187.692-187.66-187.692zM447.992 567.42c-84.818 0-153.54-68.708-153.54-153.508s68.722-153.572 153.54-153.572 153.54 68.772 153.54 153.572-68.724 153.508-153.54 153.508zM447.992 294.46c-65.842 0-119.42 53.612-119.42 119.452s53.578 119.388 119.42 119.388 119.42-53.546 119.42-119.388-53.58-119.452-119.42-119.452z" />
<glyph unicode="&#xe670;" glyph-name="phone" horiz-adv-x="832" d="M653.022-12.62c-77.804 0-266.896 99.496-425.7 313.046-148.526 199.738-220.73 344.032-220.73 441.128 0 76.452 52.796 112.938 81.152 132.53l6.998 4.882c31.338 22.406 80.068 29.654 98.744 29.654 32.754 0 46.566-19.176 54.928-35.886 7.096-14.128 65.94-140.494 71.904-156.204 9.148-24.156 6.132-59.36-22.158-79.602l-4.964-3.466c-14.046-9.73-40.168-27.822-43.782-49.814-1.766-10.694 1.816-21.874 10.946-34.186 45.548-61.376 190.976-241.588 217.198-266.062 20.542-19.192 46.566-21.924 64.292-6.98 18.342 15.462 26.49 24.59 26.572 24.69l1.882 1.816c1.55 1.3 15.878 12.662 39.302 12.662 16.892 0 34.086-5.832 51.062-17.31 44.1-29.788 143.594-96.346 143.594-96.346l1.616-1.216c12.728-10.912 31.122-42.332 9.68-83.234-22.224-42.452-91.214-130.102-162.536-130.102zM193.486 874.5c-16.16 0-55.878-6.83-78.92-23.29l-7.414-5.182c-26.456-18.294-66.44-45.916-66.44-104.476 0-89.498 70.006-227.128 213.998-420.77 157.256-211.5 337.018-299.284 398.312-299.284 52.128 0 111.89 72.822 132.314 111.808 12.546 23.94 2.282 37.434-1.266 41.084-11.512 7.712-101.242 67.74-142.494 95.612-11.246 7.612-22.010 11.46-31.97 11.46-9.046 0-14.994-3.214-17.010-4.482-3.332-3.566-12.494-12.946-28.756-26.656-30.436-25.622-76.736-22.542-109.572 8.13-29.54 27.572-178.73 213.316-221.298 270.678-14.728 19.842-20.524 40.052-17.228 60.060 5.982 36.27 39.836 59.71 58.028 72.306l4.532 3.182c16.244 11.612 12.812 32.638 10.114 39.752-5.032 13.246-63.126 138.312-70.488 153.006-6.032 12.032-10.764 17.062-24.442 17.062z" />
<glyph unicode="&#xe672;" glyph-name="window" horiz-adv-x="896" d="M21.492 874.5v-853h853.016v853h-853.016zM840.388 840.38v-136.48h-784.776v136.48h784.776zM55.612 55.62v614.16h784.776v-614.16h-784.776zM243.272 789.2h528.876v-34.12h-528.876v34.12zM106.792 789.2h34.12v-34.12h-34.12v34.12zM175.032 789.2h34.12v-34.12h-34.12v34.12z" />
<glyph unicode="&#xe677;" glyph-name="alarm" horiz-adv-x="832" d="M706.354 276.008v274.178c0 142.776-103.328 261.198-239.174 285.288v21.792c0 18.842-15.294 34.12-34.12 34.12h-34.12c-18.858 0-34.12-15.278-34.12-34.12v-21.892c-135.58-24.356-238.506-142.644-238.506-285.188v-274.176l-119.754-96.93v-55.312h818.88v55.312l-119.086 96.928zM791.32 157.888h-750.64v4.914l119.754 96.928v290.456c0 141.112 114.788 255.9 255.9 255.9 141.078 0 255.9-114.788 255.9-255.9v-290.404l119.086-96.928v-4.966zM415.968 4.614c47.146 0 85.398 38.152 85.398 85.3h-170.732c0.034-47.148 38.252-85.3 85.334-85.3z" />
<glyph unicode="&#xe678;" glyph-name="battery" d="M0.65 619.232v-342.45c0-27.922 22.642-50.562 50.548-50.562h427.132v443.56h-427.134c-27.904 0-50.546-22.624-50.546-50.548zM444.21 260.34h-393.014c-9.062 0-16.428 7.38-16.428 16.442v342.45c0 9.062 7.364 16.428 16.428 16.428h393.012v-375.32zM1023.35 448c0 56.228-45.35 101.844-101.462 102.308v68.924c0 27.922-22.624 50.548-50.548 50.548h-358.89v-34.12h358.892c9.064 0 16.428-7.364 16.428-16.428v-342.45c0-9.062-7.364-16.442-16.428-16.442h-358.892v-34.12h358.892c27.924 0 50.548 22.64 50.548 50.562v68.908c56.112 0.466 101.46 46.064 101.46 102.31zM921.89 379.842v136.314c37.202-0.5 67.342-30.822 67.342-68.156-0.002-37.336-30.14-67.658-67.342-68.158z" />
<glyph unicode="&#xe679;" glyph-name="basketball" horiz-adv-x="896" d="M447.966 874.5c-235.54 0-426.466-190.976-426.466-426.534 0-235.54 190.924-426.466 426.466-426.466s426.534 190.926 426.534 426.466c0 235.558-190.992 426.534-426.534 426.534zM839.946 465.026h-305.98c3.266 117.22 39.95 228.61 106.792 324.54 114.388-64.826 193.19-185.362 199.188-324.54zM447.966 840.38c57.644 0 112.324-12.596 161.67-34.986-69.14-100.794-106.924-217.648-110.124-340.368h-103.026c-3.232 122.72-40.984 239.59-110.158 340.368 49.348 22.408 104.028 34.986 161.638 34.986zM255.242 789.566c66.84-95.896 103.526-207.302 106.79-324.54h-305.978c5.964 139.178 84.8 259.732 199.188 324.54zM56.054 430.906h306.314c-3.266-117.304-39.884-228.81-106.76-324.706-114.59 64.758-193.558 185.394-199.554 324.706zM447.966 55.62c-57.61 0-112.288 12.578-161.636 34.986 69.174 100.76 106.926 217.548 110.158 340.3h103.026c3.2-122.784 40.984-239.54 110.124-340.3-49.35-22.39-104.028-34.986-161.672-34.986zM640.292 106.168c-66.842 95.896-103.426 207.402-106.66 324.738h306.314c-5.998-139.33-85-259.98-199.654-324.738z" />
<glyph unicode="&#xe67a;" glyph-name="back" horiz-adv-x="896" d="M396.462 705.416v-139.98l33.788-0.332c234.708-2.266 366.924-106.66 401.36-318.21-128.934 149.142-277.61 149.21-401.012 149.244h-34.138v-138.78l-316.29 224.046 316.292 224.012zM430.582 771.424l-409.44-290.020 409.44-290.020v170.634c163.87-0.066 315.794-8.33 444.276-237.442 0 145.51-24.040 470.584-444.276 474.648v172.2z" />
<glyph unicode="&#xe67b;" glyph-name="warning" data-tags="warning" d="M985.793-0.25h-948.085l474.043 831.299 474.043-831.299zM92.793 31.75h837.915l-418.957 734.701-418.957-734.701zM527.28 193.021c-15.051 0-27.207-12.211-27.207-27.261 0-15.014 12.159-27.224 27.207-27.224 15.104 0 27.314 12.211 27.314 27.224 0 15.052-12.207 27.261-27.314 27.261v0zM511.752 511.751h32v-286h-32v286z" />
<glyph unicode="&#xe67e;" glyph-name="alarm-clock" horiz-adv-x="896" d="M447.75 772.106c-207.32 0-375.32-168.034-375.32-375.32 0-94.064 34.702-179.996 91.898-245.87l-87.8-107.624 26.422-21.558 85.084 104.26c67.424-64.676 158.888-104.492 259.716-104.492 101.060 0 192.724 40.018 260.214 104.992l85.034-104.894 26.522 21.492-87.864 108.39c56.91 65.808 91.414 151.508 91.414 245.304 0 207.286-168.068 375.32-375.32 375.32zM447.75 55.62c-188.144 0-341.2 153.040-341.2 341.166 0 188.16 153.056 341.2 341.2 341.2 188.142 0 341.2-153.040 341.2-341.2 0-188.126-153.056-341.166-341.2-341.166zM293.46 874.5h-101.36c-94.23 0-170.6-76.37-170.6-170.6v-102.66h48.514l223.446 224.712v48.548zM259.34 840.014l-203.72-204.654v68.54c0 75.236 61.226 136.48 136.48 136.48h67.24v-0.366zM703.9 874.5h-101.426v-48.548l223.48-224.712h48.548v102.66c-0.002 94.23-76.406 170.6-170.602 170.6zM840.38 635.36h-0.234l-203.552 204.654v0.366h67.306c75.254 0 136.48-61.244 136.48-136.48v-68.54zM430.94 396.82h-188.094v-34.12h222.214v307.080h-34.12z" />
<glyph unicode="&#xe67f;" glyph-name="airplay" horiz-adv-x="832" d="M825.44 806.26h-818.88v-511.8h277.826l-175.466-204.72h614.16l-175.48 204.72h277.84v511.8zM183.108 123.86l232.876 271.712 232.908-271.712h-465.784zM791.32 328.58h-272.978l-102.36 119.42-102.36-119.42h-272.942v443.56h750.64v-443.56z" />
<glyph unicode="&#xe680;" glyph-name="x" horiz-adv-x="384" d="M23.118 641.008l-24.126-24.126 168.884-168.884-168.084-168.086 24.126-24.126 168.084 168.084 168.086-168.084 24.126 24.126-168.084 168.086 168.884 168.884-24.126 24.126-168.886-168.884z" />
<glyph unicode="&#xe681;" glyph-name="close" horiz-adv-x="896" d="M146.422 749.578c-166.576-166.576-166.576-436.586 0-603.162s436.58-166.57 603.156 0.006c166.576 166.576 166.582 436.58 0.006 603.156s-436.586 166.576-603.162 0zM725.452 170.548c-152.982-152.982-401.922-152.988-554.904-0.006s-152.982 401.928 0 554.91c152.982 152.982 401.926 152.982 554.91 0 152.98-152.982 152.974-401.922-0.006-554.904zM279.118 641.008l-24.126-24.126 168.884-168.884-168.084-168.086 24.126-24.126 168.084 168.084 168.086-168.084 24.126 24.126-168.084 168.086 168.884 168.884-24.126 24.126-168.886-168.884z" />
<glyph unicode="&#xe682;" glyph-name="carret-top" horiz-adv-x="384" d="M216.542 550.102l-24.142 24.142-193.13-193.132 24.138-24.138 168.992 168.99 168.192-168.192 24.138 24.142-96.406 96.406z" />
<glyph unicode="&#xe683;" glyph-name="uparrow" horiz-adv-x="896" d="M447.216 21.472c235.724 0 426.772 191.046 426.772 426.772s-191.046 426.772-426.772 426.772-426.77-191.048-426.77-426.772 191.046-426.772 426.77-426.772zM447.216 840.874c216.486 0 392.63-176.14 392.63-392.63 0-216.486-176.144-392.63-392.63-392.63s-392.63 176.144-392.63 392.63c0 216.49 176.144 392.63 392.63 392.63zM471.59 550.102l-24.142 24.142-193.128-193.132 24.138-24.138 168.99 168.99 168.194-168.192 24.138 24.142-96.406 96.406z" />
<glyph unicode="&#xe684;" glyph-name="carret-right" horiz-adv-x="256" d="M197.076 423.458l24.14 24.142-193.132 193.13-24.138-24.138 168.992-168.992-168.194-168.192 24.142-24.138 96.406 96.406z" />
<glyph unicode="&#xe685;" glyph-name="arrow-right-circle" horiz-adv-x="896" d="M20.446 448.244c0-235.724 191.046-426.772 426.772-426.772s426.772 191.046 426.772 426.772-191.048 426.772-426.774 426.772-426.77-191.048-426.77-426.772zM839.846 448.244c0-216.486-176.14-392.63-392.63-392.63-216.486 0-392.63 176.144-392.63 392.63s176.144 392.63 392.63 392.63c216.49 0 392.63-176.144 392.63-392.63zM549.076 423.87l24.14 24.142-193.132 193.13-24.138-24.138 168.992-168.992-168.194-168.192 24.142-24.138 96.406 96.406z" />
<glyph unicode="&#xe686;" glyph-name="carret-left" horiz-adv-x="256" d="M25.358 472.542l-24.142-24.142 193.134-193.13 24.138 24.138-168.992 168.992 168.192 168.192-24.14 24.138-96.406-96.406z" />
<glyph unicode="&#xe687;" glyph-name="carret-left-circle" horiz-adv-x="896" d="M873.988 448.244c0 235.724-191.046 426.772-426.772 426.772s-426.77-191.048-426.77-426.772 191.046-426.772 426.772-426.772 426.77 191.048 426.77 426.772zM54.586 448.244c0 216.486 176.14 392.63 392.63 392.63 216.486 0 392.63-176.144 392.63-392.63s-176.144-392.63-392.63-392.63c-216.488 0-392.63 176.144-392.63 392.63zM345.358 472.618l-24.142-24.142 193.134-193.13 24.138 24.14-168.992 168.99 168.192 168.192-24.14 24.138-96.406-96.406z" />
<glyph unicode="&#xe688;" glyph-name="carret-down" horiz-adv-x="384" d="M167.458 346.386l24.142-24.142 193.13 193.134-24.138 24.138-168.992-168.992-168.192 168.192-24.138-24.142 96.406-96.406z" />
<glyph unicode="&#xe689;" glyph-name="arrow-down-circle" horiz-adv-x="896" d="M447.216 875.016c-235.724 0-426.772-191.046-426.772-426.772s191.046-426.772 426.772-426.772 426.772 191.046 426.772 426.772-191.046 426.772-426.772 426.772zM447.216 55.614c-216.486 0-392.63 176.14-392.63 392.63 0 216.486 176.144 392.63 392.63 392.63s392.63-176.144 392.63-392.63c0-216.49-176.144-392.63-392.63-392.63zM422.842 346.386l24.142-24.142 193.13 193.134-24.138 24.138-168.992-168.992-168.192 168.192-24.138-24.142 96.406-96.406z" />
<glyph unicode="&#xe68a;" glyph-name="cloud-upload" d="M384.8 443l-24.2 24.2 152.8 152.8 152.8-152.8-24.2-24.2-111.6 111.6v-446.6h-34.2v446.6l-111.4-111.6zM838.2 653.8c0 2.8 0.4 5.4 0.4 8 0 146.2-118.4 264.6-264.6 264.6-105.2 0-195.8-61.6-238.4-150.6-18.4 9.2-39.2 14.6-61.2 14.6-67.6 0-123.6-49.2-134.4-113.6-80.4-27.6-138.4-103.8-138.4-193.6 0-113 91.6-204.6 204.6-204.6h222v34.2h-222c-94 0-170.4 76.6-170.4 170.6 0 72.8 46.4 137.6 115.4 161.4l19.2 6.6 3.4 20c8.4 49.4 50.8 85.2 100.8 85.2 16 0 31.4-3.8 45.8-11l31.2-15.6 15 31.4c38 79.4 119.4 130.8 207.4 130.8 127 0 230.4-103.4 230.4-230.4 0-0.6 0-1.4-0.2-2.2-0.2-1.6-0.2-3.4-0.2-5.2l-0.8-34.8 34.8-0.2c84.4-0.2 153.2-69.2 153.2-153.6 0-84.2-68.6-153-152.8-153.4h-239.6v-34.2h239.8c103.2 0.6 186.8 84.4 186.8 187.6-0.2 103.8-83.8 187.8-187.2 188z" />
<glyph unicode="&#xe68b;" glyph-name="cloud-download" d="M641.6 148.4l24.2-24.2-152.8-152.8-152.8 152.8 24.2 24.2 111.6-111.6v446.6h34v-446.6l111.6 111.6zM837.6 653.8c0 2.8 0.4 5.4 0.4 8 0 146.2-118.4 264.6-264.4 264.6-105.2 0-195.8-61.6-238.4-150.6-18.4 9.2-39.2 14.6-61.2 14.6-67.6 0-123.6-49.2-134.4-113.6-80.4-27.6-138.4-103.8-138.4-193.6 0-113 91.6-204.6 204.6-204.6h222v34.2h-222c-94 0-170.4 76.6-170.4 170.6 0 72.8 46.4 137.6 115.4 161.4l19.2 6.6 3.4 20c8.4 49.4 50.8 85.2 100.8 85.2 16 0 31.4-3.8 45.8-11l31.2-15.6 15 31.4c38.2 79.8 119.6 131.2 207.6 131.2 126.8-0.4 230.2-103.6 230.2-230.6 0-0.6 0-1.4-0.2-2.2-0.2-1.6-0.2-3.4-0.2-5.2l-0.8-34.8 34.8-0.2c84.4-0.2 153.2-69.2 153.2-153.6 0-84.2-68.6-153-152.8-153.4h-239.8v-34.2h239.8c103.2 0.6 186.8 84.4 186.8 187.6 0 103.6-83.8 187.6-187.2 187.8z" />
<glyph unicode="&#xe68c;" glyph-name="money" horiz-adv-x="940" d="M537.096 615.844c-55.594 0-100.702-45.084-100.702-100.692 0-55.622 45.108-100.724 100.702-100.724 55.636 0 100.708 45.1 100.708 100.724 0 55.606-45.076 100.69-100.708 100.69zM537.096 448c-37.008 0-67.134 30.128-67.134 67.154 0 37.010 30.128 67.12 67.134 67.12 37.044 0 67.14-30.11 67.14-67.12 0-37.028-30.096-67.154-67.14-67.154zM134.272 766.904v-503.53h805.648v503.53h-805.648zM906.356 653.336v-356.396h-738.512v436.394h738.512v-79.996zM759.884 229.804h-659.178v469.96h-33.57v-503.53h805.65v33.572h-33.568zM692.746 162.664h-659.178v469.962h-33.568v-503.532h805.65v33.568h-33.572zM218.196 698.716h100.708v-33.568h-100.706v33.568zM218.196 364.078h100.708v-33.568h-100.706v33.568zM755.298 698.716h100.706v-33.568h-100.706v33.568zM755.298 364.078h100.706v-33.568h-100.706v33.568z" />
<glyph unicode="&#xe68f;" glyph-name="identity" horiz-adv-x="1034" d="M416 528c0 44.113-35.887 80-80 80s-80-35.887-80-80 35.887-80 80-80c44.113 0 80 35.887 80 80zM336 480c-26.468 0-48 21.532-48 48s21.532 48 48 48c26.467 0 48-21.532 48-48s-21.533-48-48-48zM336 448c-38.462 0-74.622-14.98-101.822-42.178s-42.178-63.36-42.178-101.822v-16h32v16c0 61.757 50.243 112 112 112s112-50.243 112-112v-16h32v16c0 38.462-14.979 74.622-42.178 101.822s-63.36 42.178-101.822 42.178zM896 736h-320v128h-128v-128h-320c-35.29 0-64-28.71-64-64v-448c0-35.289 28.71-64 64-64h768c35.289 0 64 28.711 64 64v448c0 35.29-28.711 64-64 64zM480 832h64v-160h-64v160zM928 224c0-17.645-14.356-32-32-32h-768c-17.645 0-32 14.355-32 32v448c0 17.645 14.355 32 32 32h320v-64h128v64h320c17.644 0 32-14.355 32-32v-448zM576 608h256v-32h-256v32zM576 512h256v-32h-256v32zM576 416h256v-32h-256v32zM576 320h256v-32h-256v32z" />
<glyph unicode="&#xe691;" glyph-name="globe" horiz-adv-x="740" d="M100.868 506.796c0-176.122 142.764-318.888 318.868-318.888 176.178 0 318.936 142.764 318.936 318.888 0 176.152-142.758 318.916-318.936 318.916-176.1-0.004-318.868-142.76-318.868-318.916zM419.742 792.136c157.354 0 285.364-128.004 285.364-285.342 0-157.318-128.014-285.314-285.364-285.314-157.32 0-285.306 127.996-285.306 285.314 0.002 157.338 127.98 285.344 285.306 285.344zM609.88 132.408l16.158-32.648 30.096 14.884-45.636 92.148-30.092-14.916 14.554-29.34c-53.99-27.504-114.116-42.092-175.222-42.092-212.948 0-386.168 173.316-386.168 386.352 0 145.126 82.218 278.236 210.624 343.98l15.604-31.504 30.062 14.9-45.636 92.126-30.060-14.902 15.146-30.56c-139.782-71.384-229.308-216.164-229.308-374.044 0-225.918 179.284-410.64 402.988-419.494v-51.076c-77.5-3.014-149.682-26.914-210.92-66.514h70.218c48.060 21.504 101.264 33.568 157.256 33.568 55.012 0 108.278-11.932 156.894-33.568h70.516c-61.99 39.928-134.438 63.4-210.394 66.514v51.206c60.448 2.428 119.652 17.736 173.318 44.98z" />
<glyph unicode="&#xe692;" glyph-name="sound" horiz-adv-x="908" d="M436.332 791.232l-245.966-196.076h-190.366v-151.756l-0.132-0.088 0.132-0.088v-150.182h191.348l244.98-192.252v192.25h0.064v302.12h-0.064v196.076h0.004zM402.828 326.606h-0.064v-156.798l-199.808 156.798h-169.384v234.982h168.532l200.658 159.96v-126.392l0.064-33.568v-234.98h0.002zM514.778 616.678c36.52-48.658 55.828-106.644 55.828-167.702 0-62.326-20.060-121.304-57.99-170.556l26.616-20.472c42.486 55.174 64.942 121.23 64.942 191.032 0 68.382-21.636 133.34-62.548 187.848l-26.85-20.148zM650 738.346l-25.896-21.372c63.072-76.376 97.82-173.106 97.82-272.384 0-98.1-32.288-190.38-93.332-266.85l26.26-20.948c65.826 82.48 100.64 181.99 100.64 287.798 0.004 107.058-37.466 211.384-105.49 293.76zM754.51 847.338l-25.18-22.176c92.578-105.132 143.552-240.326 143.552-380.692 0-137.52-49.202-270.664-138.534-374.876l25.472-21.832c94.578 110.278 146.636 251.176 146.636 396.712-0.004 148.534-53.96 291.612-151.948 402.866z" />
<glyph unicode="&#xe694;" glyph-name="user-female" horiz-adv-x="806" d="M402.68 850.826c-222.492 0-402.824-180.366-402.824-402.826s180.332-402.824 402.824-402.824c222.46 0 402.822 180.364 402.822 402.824s-180.366 402.826-402.822 402.826zM181.728 152.304c24.652 9.068 51.696 18.212 75.76 26.294 82.186 27.62 94.838 31.86 94.838 59.582v64.826l-28.062 4.672c-2 0.346-49.272 8.144-81.036 8.144-16.39 0-25.7 0.408-34.686 6.308 23.112 50.584 47.010 129.72 56.058 192.324l1.738-0.596 2.492 44.362c3.936 71.080 62.712 126.76 133.848 126.76 71.104 0 129.882-55.68 133.848-126.76l2.918-44.2 1.278 0.434c9.048-62.604 32.946-141.74 56.058-192.324-8.948-5.9-18.292-6.308-34.65-6.308-32.224 0-77.888-10.16-82.968-11.326l-26.132-5.932v-60.384c0-27.42 13.112-32.062 98.476-62.22 22.128-7.836 46.876-16.604 69.826-25.294-61.268-45.156-136.9-71.924-218.654-71.924-82.774-0.004-159.288 27.37-220.95 73.558zM651.164 175.106c-68.48 27.096-164.562 56.876-164.562 63.076 0 7.692 0 33.584 0 33.584s46.156 10.488 75.528 10.488 50.356 1.836 75.532 33.304c-31.472 55.596-67.14 180.694-67.14 244.686l-0.49-0.164c-4.884 88.314-77.824 158.468-167.352 158.468s-162.468-70.154-167.384-158.468l-0.46 0.164c0-63.992-35.668-189.086-67.14-244.686 25.18-31.472 46.156-33.304 75.528-33.304s75.532-7.688 75.532-7.688 0-28.696 0-36.388c0-6.294-98.282-34.602-166.598-61.152-72.972 67.514-118.736 163.972-118.736 270.972 0 203.61 165.648 369.256 369.256 369.256s369.252-165.648 369.252-369.256c0.004-107.996-46.608-205.308-120.764-272.892z" />
<glyph unicode="&#xe698;" glyph-name="safe" horiz-adv-x="840" d="M419.608 599.058c-77.724 0-141.716-58.744-150.076-134.274h-34.552v-33.568h34.552c8.36-75.528 72.348-134.276 150.076-134.276 83.432 0 151.060 67.63 151.060 151.060 0 83.432-67.628 151.060-151.060 151.060zM419.608 330.51c-59.072 0-107.95 43.86-116.144 100.706h116.144v33.57h-116.144c8.194 56.844 57.076 100.704 116.144 100.704 64.778 0 117.488-52.712 117.488-117.49s-52.712-117.49-117.49-117.49zM100.706 294.842v100.706h-33.568v-134.274h33.568zM100.706 531.922v100.706h-33.568v-134.274h33.568zM134.276 733.332v-570.672h570.668v570.672h-570.668zM671.376 196.236h-503.532v503.532h503.532v-503.532zM0.002 834.040v-772.082h839.216v772.082h-839.216zM805.65 95.528h-772.082v704.944h772.084v-704.944h-0.004z" />
<glyph unicode="&#xe6a0;" glyph-name="medal" horiz-adv-x="604" d="M435.442 550.96c20.452 48.624 84.866 204.256 84.866 237.25v129.752h-436.39v-129.75c0-33.076 63.99-189.66 83.956-237.702-99.398-49.468-167.878-151.778-167.878-270.352 0-166.86 135.256-302.12 302.12-302.12 166.86 0 302.12 135.256 302.12 302.12 0 118.928-68.908 221.524-168.794 270.802zM117.488 788.212v96.182h167.252v-229.654h33.568v229.654h168.438v-96.182c0-18.4-41.176-126.72-82.216-224.124-32.028 11.556-66.416 18.178-102.412 18.178-36.356 0-71.070-6.762-103.36-18.536-34.88 83.956-81.268 204.24-81.268 224.484zM302.118 11.606c-148.076 0-268.55 120.472-268.55 268.552 0 148.076 120.474 268.54 268.55 268.54s268.55-120.468 268.55-268.54c0-148.076-120.476-268.552-268.55-268.552zM302.118 481.56c-111.228 0-201.414-90.174-201.414-201.402 0-111.25 90.184-201.416 201.414-201.416 111.262 0 201.412 90.168 201.412 201.416 0 111.23-90.152 201.404-201.412 201.404zM302.118 112.312c-92.544 0-167.844 75.302-167.844 167.846 0 92.542 75.3 167.832 167.844 167.832 92.576 0 167.844-75.292 167.844-167.832 0-92.544-75.268-167.846-167.846-167.846z" />
<glyph unicode="&#xe6a8;" glyph-name="downarrow" horiz-adv-x="840" d="M0 448c0-231.768 187.872-419.608 419.61-419.608 231.736 0 419.608 187.842 419.608 419.608 0 231.736-187.872 419.608-419.61 419.608-231.736 0-419.608-187.872-419.608-419.608zM805.65 448c0-212.87-173.188-386.040-386.044-386.040-212.884 0-386.040 173.172-386.040 386.040s173.156 386.040 386.040 386.040c212.856 0 386.044-173.172 386.044-386.040zM239.21 422.528l-23.736-23.732 204.132-204.116 204.104 204.116-23.736 23.732-163.582-163.598v407.268h-33.568v-407.268z" />
<glyph unicode="&#xe6aa;" glyph-name="comment" horiz-adv-x="832" d="M757.25 805.752h-682.5c-37.686 0-68.24-30.554-68.24-68.24v-443.792c0-37.686 30.554-68.24 68.24-68.24h478.98l135.23-135.232v135.232h68.292c37.684 0 68.24 30.554 68.24 68.24v443.792c-0.002 37.686-30.558 68.24-68.242 68.24zM791.37 293.72c0-18.81-15.312-34.12-34.12-34.12h-102.41v-86.984l-86.982 86.984h-493.108c-18.808 0-34.12 15.31-34.12 34.12v443.792c0 18.81 15.312 34.12 34.12 34.12h682.5c18.808 0 34.12-15.31 34.12-34.12v-443.792zM416 549.62c-18.842 0-34.12-15.294-34.12-34.12 0-18.842 15.278-34.12 34.12-34.12s34.12 15.278 34.12 34.12c0 18.826-15.278 34.12-34.12 34.12zM552.48 549.62c-18.842 0-34.12-15.294-34.12-34.12 0-18.842 15.278-34.12 34.12-34.12s34.12 15.278 34.12 34.12c0 18.826-15.278 34.12-34.12 34.12zM282.734 549.62c-18.842 0-34.12-15.294-34.12-34.12 0-18.842 15.278-34.12 34.12-34.12s34.12 15.278 34.12 34.12c0 18.826-15.276 34.12-34.12 34.12z" />
<glyph unicode="&#xe6b7;" glyph-name="star" horiz-adv-x="960" d="M588.156 550.296l-108.156 332.738-108.19-332.736h-352.43l285.588-204.702-109.656-332.628 284.688 206.342 284.654-206.344-109.622 332.628 285.588 204.702h-352.464zM622.612 334.914l76.602-232.35-219.214 158.88-219.248-158.88 84.466 256.158-20.392 14.594-199.29 142.86h271.062l83.402 256.518 83.368-256.518h271.062l-219.648-157.454 7.83-23.808z" />
<glyph unicode="&#xe6b9;" glyph-name="mortarboard" d="M1008.448 634.34l-496.44 238.94-496.456-238.958 69.956-42.182v-368.94h34.12v348.364l102.36-61.724v-423.12h580.040v423.018l206.42 124.602zM512.008 835.428l424.802-204.488-424.552-256.266-425.034 256.284 424.784 204.47zM767.908 120.84h-511.8v368.44l256.15-154.456 255.65 154.324v-368.308z" />
</font>
</defs>
</svg>
